<?xml version="1.0" standalone="no"?>
<!DOCTYPE svg PUBLIC "-//W3C//DTD SVG 1.1//EN" "http://www.w3.org/Graphics/SVG/1.1/DTD/svg11.dtd" >
<svg xmlns="http://www.w3.org/2000/svg">
<metadata>
Created by FontForge 20120731 at Mon Jun 27 16:23:11 2016
 By admin
</metadata>
<defs>
<font id="hm-iconfont" horiz-adv-x="1024" >
  <font-face 
    font-family="hm-iconfont"
    font-weight="500"
    font-stretch="normal"
    units-per-em="1024"
    panose-1="2 0 6 3 0 0 0 0 0 0"
    ascent="896"
    descent="-128"
    x-height="792"
    bbox="0 -212 1274 897"
    underline-thickness="50"
    underline-position="-100"
    unicode-range="U+0078-E68F"
  />
<missing-glyph horiz-adv-x="374" 
d="M34 0v682h272v-682h-272zM68 34h204v614h-204v-614z" />
    <glyph glyph-name=".notdef" horiz-adv-x="374" 
d="M34 0v682h272v-682h-272zM68 34h204v614h-204v-614z" />
    <glyph glyph-name=".null" horiz-adv-x="0" 
 />
    <glyph glyph-name="nonmarkingreturn" horiz-adv-x="341" 
 />
    <glyph glyph-name="x" unicode="x" horiz-adv-x="1001" 
d="M281 543q-27 -1 -53 -1h-83q-18 0 -36.5 -6t-32.5 -18.5t-23 -32t-9 -45.5v-76h912v41q0 16 -0.5 30t-0.5 18q0 13 -5 29t-17 29.5t-31.5 22.5t-49.5 9h-133v-97h-438v97zM955 310v-52q0 -23 0.5 -52t0.5 -58t-10.5 -47.5t-26 -30t-33 -16t-31.5 -4.5q-14 -1 -29.5 -0.5
t-29.5 0.5h-32l-45 128h-439l-44 -128h-29h-34q-20 0 -45 1q-25 0 -41 9.5t-25.5 23t-13.5 29.5t-4 30v167h911zM163 247q-12 0 -21 -8.5t-9 -21.5t9 -21.5t21 -8.5q13 0 22 8.5t9 21.5t-9 21.5t-22 8.5zM316 123q-8 -26 -14 -48q-5 -19 -10.5 -37t-7.5 -25t-3 -15t1 -14.5
t9.5 -10.5t21.5 -4h37h67h81h80h64h36q23 0 34 12t2 38q-5 13 -9.5 30.5t-9.5 34.5q-5 19 -11 39h-368zM336 498v228q0 11 2.5 23t10 21.5t20.5 15.5t34 6h188q31 0 51.5 -14.5t20.5 -52.5v-227h-327z" />
    <glyph glyph-name="uniD001" unicode="&#xd001;" 
d="M544 352h352q14 0 23 9.5t9 22.5t-9 22.5t-23 9.5h-352v352q0 14 -9.5 23t-22.5 9t-22.5 -9t-9.5 -23v-352h-352q-14 0 -23 -9.5t-9 -22.5t9 -22.5t23 -9.5h352v-352q0 -14 9.5 -23t22.5 -9t22.5 9t9.5 23v352z" />
    <glyph glyph-name="uniE600" unicode="&#xe600;" 
d="M341 768h555q53 0 90.5 -37.5t37.5 -90.5v-512q0 -53 -37.5 -90.5t-90.5 -37.5h-555l-341 384zM896 683h-516l-266 -299l266 -299h516q18 0 30.5 12.5t12.5 30.5v512q0 18 -12.5 30.5t-30.5 12.5zM811 512q0 -18 -13 -30l-98 -98l98 -98q13 -12 13 -30t-12.5 -30.5
t-30.5 -12.5t-30 13l-98 98l-98 -98q-12 -13 -30 -13t-30.5 12.5t-12.5 30.5q0 17 13 30l98 98l-98 98q-13 13 -13 30q0 18 12.5 30.5t30.5 12.5t30 -13l98 -98l98 98q12 13 30 13t30.5 -12.5t12.5 -30.5z" />
    <glyph glyph-name="uniE601" unicode="&#xe601;" 
d="M555 384l400 -400l-43 -43l-400 400l-400 -400l-43 43l400 400l-400 400l43 43l400 -400l400 400l43 -43z" />
    <glyph glyph-name="uniE602" unicode="&#xe602;" 
d="M512 896q-139 0 -257 -68.5t-186.5 -186.5t-68.5 -257t68.5 -257t186.5 -186.5t257 -68.5t257 68.5t186.5 186.5t68.5 257t-68.5 257t-186.5 186.5t-257 68.5zM473 178l-73 -73l-72 73l-145 144l72 73l145 -145l362 362l73 -72z" />
    <glyph glyph-name="uniE603" unicode="&#xe603;" 
d="M1023 373q0 -75 -53.5 -128t-128.5 -53h-185q-9 0 -15 6t-6 14.5t6 14.5t15 6h185q58 0 99.5 41t41.5 99t-41 99.5t-99 41.5h-1q-10 0 -16 7t-5 16q2 16 2 28q0 95 -67 161.5t-161 66.5q-72 0 -131 -42q-57 -41 -82 -107q-4 -10 -15 -12.5t-19 5.5q-29 30 -71.5 30
t-72.5 -30t-30 -72v-2v-3q1 -16 -15 -20q-50 -14 -82 -56t-32 -95q0 -65 45.5 -110.5t110.5 -45.5h170q8 0 14 -6t6 -14.5t-6 -14.5t-14 -6h-170q-82 0 -139.5 57.5t-57.5 139.5q0 67 41 121q35 45 88 64q4 56 45.5 95t97.5 39q43 0 79 -24q30 61 85 100q70 50 155 50
q111 0 190 -79t79 -190q0 -5 -1 -11q68 -8 114.5 -59.5t46.5 -121.5zM629 75l-102 -102q-6 -6 -14.5 -6t-14.5 6l-102 102q-6 6 -6 14.5t6 14.5t14.5 6t14.5 -6l67 -67v359q0 8 6 14t14.5 6t14.5 -6t6 -14v-359l67 67q6 6 14.5 6t14.5 -6t6 -14.5t-6 -14.5z" />
    <glyph glyph-name="uniE604" unicode="&#xe604;" horiz-adv-x="1061" 
d="M611 779l21 -35q18 -30 45 -76t61 -104.5t70 -119.5t71 -121t64.5 -110t50.5 -86t29 -49q15 -26 18.5 -51.5t-3 -46t-23.5 -33.5t-41 -12q-13 0 -52.5 1t-96.5 1h-128h-144q-74 0 -146.5 -1t-135.5 -1h-109h-70q-39 0 -60 13.5t-28 34.5t-1.5 45.5t19.5 46.5q8 11 29 46
t50.5 84.5t65.5 109.5t72.5 122t71.5 120t62.5 105.5t46.5 77.5l21 36q15 23 38 34.5t47.5 11.5t47.5 -10.5t37 -32.5zM586 579q0 12 -6 22.5t-15 19.5t-21 14t-24 5q-23 0 -43 -18.5t-20 -41.5v-269q0 -23 20 -42t43 -19q25 0 45.5 18t20.5 41v270zM520 189
q-27 0 -45.5 -18t-18.5 -45t18.5 -46t45.5 -19t45.5 19t18.5 46t-18.5 45t-45.5 18z" />
    <glyph glyph-name="uniE605" unicode="&#xe605;" 
d="M584 -63q14 0 23.5 9.5t9.5 23.5t-9.5 24t-23.5 10h-414q-14 0 -23 10q-20 21 -16 68v635q0 20 20.5 34.5t55.5 14.5q23 0 23 -1h354q14 0 23.5 9.5t9.5 23.5t-9.5 24t-23.5 10h-435q-35 0 -60 -25t-25 -60v-725q0 -35 25 -60t60 -25h435zM957 377l-169 -203q-4 -4 -9 -4
q-2 0 -4 1q-7 2 -7 11v138h-320q-27 0 -45.5 19t-18.5 45.5t18.5 45t45.5 18.5h320v138q0 9 7 11q10 0 13 -3l169 -203q6 -7 0 -14z" />
    <glyph glyph-name="uniE606" unicode="&#xe606;" horiz-adv-x="1000" 
d="M235 850h558v-244h101q16 0 29 -7q25 -13 27 -43v-372q-2 -31 -28 -44q-12 -6 -30 -5h-99v-157h-558q0 131 -1 157h-52h-52q-25 -1 -41 19q-10 12 -12 29v373q2 18 13 31q15 19 40 19h52h52q1 37 1 244zM269 815v-105v-104h489v66v78v65h-489zM112 552v-363q0 -8 5.5 -14
t12.5 -5q5 -1 52 -1h53v192h558v-95v-97h51h50q10 0 15 5q7 5 6 16v181v181q1 8 -5.5 14t-14.5 5h-763q-8 1 -14 -5t-6 -14zM269 327v-157v-158h489v158v157h-489zM818 517q15 5 29 -4q15 -10 16 -28q1 -17 -13 -28q-16 -14 -36 -5q-10 4 -16 13.5t-5 19.5q0 11 7 20t18 12z
M339 256q34 1 169 1h169q18 0 23 -6q5 -4 5 -11.5t-5 -12.5q-4 -5 -18 -5h-340q-16 -1 -19 13q-3 7 2.5 14t13.5 7zM339 187h137h137q13 0 18 -7q6 -6 4 -14.5t-9 -11.5q-5 -2 -22 -2h-132h-130q-16 0 -19 13q-3 7 2.5 14t13.5 8zM339 117h171h172q13 0 18 -6q5 -4 5 -11.5
t-5 -11.5q-4 -6 -17 -6h-341q-16 0 -19 13q-3 8 2.5 15t13.5 7z" />
    <glyph glyph-name="uniE607" unicode="&#xe607;" 
d="M512 896q-213 0 -362.5 -149.5t-149.5 -362.5t149.5 -362.5t362.5 -149.5t362.5 149.5t149.5 362.5t-149.5 362.5t-362.5 149.5zM569 100h-114v113h114v-113zM569 327h-114v341h114v-341z" />
    <glyph glyph-name="uniE608" unicode="&#xe608;" 
d="M843 -64h-668q-46 0 -78.5 32.5t-32.5 78.5v668q0 47 33 82t79 35h448v-56h-448q-23 0 -39.5 -18.5t-16.5 -42.5v-668q0 -23 16 -39t39 -16h668q23 0 42 16.5t19 39.5v448h56v-448q0 -46 -35.5 -79t-81.5 -33zM510 206q-10 -11 -28 -15l-244 -120q-20 -9 -33.5 4.5
t-5.5 34.5l120 244q4 18 14 29l433 433q16 16 39 16t40 -16l98 -99q16 -16 16 -39t-16 -39zM252 144q-5 -10 2 -17t18 -3l150 91l-79 79zM392 324l59 -59q8 -7 20 -20l315 315l-99 98l-314 -315zM884 698l-59 59q-8 8 -19.5 8t-19.5 -8l-58 -58l97 -100l59 59q8 8 8 20
t-8 20z" />
    <glyph glyph-name="uniE609" unicode="&#xe609;" 
d="M937 373q-2 2 -5 7t-13 16.5t-20 21t-24 16.5t-27 7q-21 0 -45 -17.5t-37 -35.5l-14 -18q-1 3 -4.5 8t-14 17.5t-21 22t-25 17t-28.5 6.5q-49 -1 -79 -64v-272q-4 -46 -12 -69q-9 -26 -32 -46q-22 -20 -46 -28q-19 -6 -51 -6q-29 0 -52.5 8.5t-39.5 25t-24.5 40
t-8.5 59.5v26h75q0 -65 9 -77q12 -18 41 -19q4 0 9 0.5t8.5 2t6.5 2.5t5 2l1 1q12 11 15 20l3 22q2 22 2 34v279q-2 2 -10.5 13t-14.5 17t-15.5 14.5t-20 12.5t-21.5 4q-25 -1 -50 -18.5t-38 -34.5l-13 -17q-6 7 -16.5 19t-35.5 31.5t-41.5 19.5t-39 -17.5t-37.5 -35.5
l-14 -17q-1 7 -0.5 20.5t6 52t16.5 74.5t37 81t62.5 79.5t97 61.5t136.5 35l53 74l52 -74q241 -15 322 -214q38 -95 33 -190z" />
    <glyph glyph-name="uniE60A" unicode="&#xe60a;" 
d="M527 -11l-160 269q-174 -67 -234 -107q-27 -18 -48.5 -60t-30 -70.5t-8.5 -33.5h963q-1 5 -2.5 13t-8.5 30.5t-16 42.5t-25.5 42t-36.5 36q-26 18 -84.5 45t-103.5 45l-45 17zM527 205l-54 -54l27 -54l-80 -108h213l-80 108l27 54zM532.5 822q38.5 0 70 -6.5t54.5 -16.5
t41 -27.5t29.5 -33t19.5 -39t12 -40t6 -42.5t2.5 -39.5t0.5 -36.5q0 -39 -17.5 -88t-47 -94t-75 -76t-96 -31t-96 30.5t-75 76t-47 94.5t-17.5 88v37q0 13 2.5 39t6.5 42.5t12 40t19.5 39t29.5 33t41 27.5t54.5 16.5t70 6.5z" />
    <glyph glyph-name="uniE60B" unicode="&#xe60b;" 
d="M513 383zM173 383.5q0 92.5 45.5 171t124 124t171 45.5t171 -45.5t124 -124t45.5 -171t-45.5 -171t-124 -124.5t-171 -46t-171 46t-124 124.5t-45.5 171z" />
    <glyph glyph-name="uniE60C" unicode="&#xe60c;" 
d="M512 896q-138 0 -256 -69t-187 -187t-69 -256t69 -256t187 -187t256 -69t256 69t187 187t69 256t-69 256t-187 187t-256 69zM563 128h-102v307h102v-307zM563 538h-102v102h102v-102z" />
    <glyph glyph-name="uniE60D" unicode="&#xe60d;" 
d="M973 687q11 0 18.5 7.5t7.5 18.5t-7.5 18.5t-18.5 7.5l-941 2q-10 0 -18 -8t-8 -19t8 -18.5t18 -7.5zM180 -96v-27h27l626 7h26v26v697q0 11 -7.5 18.5t-18.5 7.5t-18.5 -7.5t-7.5 -18.5v-697l26 27l-627 -7l27 -26v709q0 11 -7.5 19t-18.5 8t-19 -8t-8 -19v-709zM656 49
q0 -11 8 -18.5t19 -7.5t18.5 7.5t7.5 18.5v475q0 11 -7.5 18.5t-18.5 7.5t-19 -7.5t-8 -18.5v-475zM341 49q0 -11 8 -18.5t18.5 -7.5t18.5 7.5t8 18.5v475q0 11 -8 18.5t-18.5 7.5t-18.5 -7.5t-8 -18.5v-475zM499 49q0 -11 7.5 -18.5t18.5 -7.5t18.5 7.5t7.5 18.5v475
q0 11 -7.5 18.5t-18.5 7.5t-18.5 -7.5t-7.5 -18.5v-475zM392 779q0 11 7.5 19t18.5 8h205q11 0 18.5 -8t7.5 -19v-55h53v55q0 33 -23 56t-56 23h-205q-32 0 -55 -23t-23 -56v-48h52v48z" />
    <glyph glyph-name="uniE60E" unicode="&#xe60e;" 
d="M861 639q4 -8 6 -18.5t2 -22t-4 -23.5t-14 -22q-11 -11 -19.5 -19t-14.5 -14q-7 -8 -14 -13l-167 167q11 10 26 24q14 14 24 22q13 10 26.5 14t26.5 3.5t25 -4t21 -8.5q18 -10 41 -34.5t35 -51.5zM165 203q6 6 25.5 26t49.5 49l65 66l72 72l192 192l167 -168l-192 -192
l-71 -72q-36 -35 -64.5 -64t-47.5 -48t-22 -21q-9 -8 -20.5 -17t-24.5 -15q-12 -6 -36.5 -15t-50.5 -17.5t-50 -14.5t-35 -8q-25 -3 -33 7t-4 33q2 13 8.5 36.5t14 49t15 47t11.5 29.5q5 12 12 22.5t19 22.5zM165 203zM463 35h80v-80h-80v80zM626 35h80v-80h-80v80zM789 35
h80v-80h-80v80z" />
    <glyph glyph-name="uniE60F" unicode="&#xe60f;" 
d="M510 597q-27 66 -73 109t-96 56.5t-101 2.5t-90.5 -44.5t-63.5 -94t-21 -137.5q2 -49 22 -93t53.5 -79t66 -61t74.5 -57t63 -51q46 -43 97.5 -87t69.5 -62q12 12 64 56t103 93q21 21 61 52.5t72 58.5t65.5 62t54 78t25.5 92q7 76 -15.5 136t-62.5 92t-92.5 42.5
t-104 -3.5t-98 -55.5t-73.5 -105.5z" />
    <glyph glyph-name="uniE610" unicode="&#xe610;" 
d="M285 769v-74q49 0 91 -33.5t67 -93.5q8 -20 27 -32.5t41 -12.5t40.5 12.5t27.5 32.5q26 63 72 93t92 30q60 0 99 -42q48 -53 39 -151q-3 -28 -15 -55.5t-25.5 -47.5t-39.5 -45t-42.5 -38.5t-48.5 -38.5q-59 -46 -84 -70q-51 -49 -114 -103q-1 1 -14 12q-56 48 -103 92
q-25 23 -83 66q-33 24 -50 37.5t-43.5 38t-40 44t-24.5 47t-12 55.5q-5 106 50 163q39 40 93 40v74zM285 769q-44 0 -84 -18.5t-70.5 -53t-48 -88.5t-14.5 -120q1 -49 21 -93t53.5 -78.5t65.5 -60.5t74 -57t63 -50q46 -43 97 -87t70 -62q12 12 63.5 56t101.5 93
q21 20 61.5 51.5t72 58t65 61.5t54 78t24.5 92q6 65 -9 118t-45.5 86.5t-71 51.5t-85.5 18q-71 0 -134.5 -43.5t-97.5 -124.5q-35 84 -96.5 128t-129.5 44z" />
    <glyph glyph-name="uniE611" unicode="&#xe611;" 
d="M681 245q60 67 79 154t-5.5 173t-88.5 151q-67 67 -157 91t-180 0t-157 -91q-51 -50 -77 -115.5t-26 -131.5t26 -131.5t77 -115.5q64 -65 150 -89.5t173 -5t155 79.5l265 -266l31 31zM649 274l-28 -29q-90 -79 -211.5 -75.5t-207.5 89.5q-90 90 -90 217t90 216.5
t217 89.5t216 -90q86 -85 90 -206.5t-76 -211.5z" />
    <glyph glyph-name="uniE612" unicode="&#xe612;" 
d="M512 896q-104 0 -199 -40.5t-163.5 -109t-109 -163.5t-40.5 -199t40.5 -198.5t109 -163t163.5 -109t199 -40.5t199 40.5t163.5 109t109 163t40.5 198.5t-40.5 199t-109 163.5t-163.5 109t-199 40.5zM660 282h-182q-19 0 -32.5 13t-13.5 32v274q0 18 13.5 31.5t32 13.5
t32 -13.5t13.5 -31.5v-229h137q19 0 32 -13.5t13 -32t-13 -31.5t-32 -13z" />
    <glyph glyph-name="uniE613" unicode="&#xe613;" 
d="M0 448h959v-64h-959v64z" />
    <glyph glyph-name="uniE614" unicode="&#xe614;" 
d="M310 429zM259 429q0 21 15 35.5t35.5 14.5t35.5 -14.5t15 -35.5t-15 -36t-35.5 -15t-35.5 15t-15 36zM512 479q-21 0 -36 -14.5t-15 -35.5t15 -36t36 -15t35.5 15t14.5 36t-14.5 35.5t-35.5 14.5zM891 757h-758q-21 0 -36 -14.5t-15 -35.5v-556q0 -21 15 -36t36 -15h263
l102 -152h27l102 152h264q21 0 35.5 15t14.5 36v556q0 21 -14.5 35.5t-35.5 14.5zM891 176q0 -10 -7.5 -17.5t-17.5 -7.5h-205l1 1h-59l-2 -1l-31 -51l-59 -96l-58 96l-31 51l-60 1v-1h-204q-11 0 -18 7.5t-7 17.5v506q0 10 7 17.5t18 7.5h708q10 0 17.5 -7.5t7.5 -17.5
v-506zM714 479q-21 0 -36 -14.5t-15 -35.5t15 -36t36 -15t35.5 15t14.5 36t-14.5 35.5t-35.5 14.5z" />
    <glyph glyph-name="uniE615" unicode="&#xe615;" 
d="M496.5 865q-100.5 0 -192.5 -39.5t-158.5 -106t-106 -158.5t-39.5 -192.5t39.5 -192.5t106 -158.5t158.5 -106t192.5 -39.5t192.5 39.5t158.5 106t106 158.5t39.5 192.5t-39.5 192.5t-106 158.5t-158.5 106t-192.5 39.5zM496.5 -66q-88.5 0 -169 34.5t-138.5 92.5
t-92.5 138.5t-34.5 169t34.5 169t92.5 138.5t138.5 92.5t169 34.5t169 -34.5t138.5 -92.5t92.5 -138.5t34.5 -169t-34.5 -169t-92.5 -138.5t-138.5 -92.5t-169 -34.5zM683 400h-155v155q0 13 -9.5 22t-22 9t-22 -9t-9.5 -22v-155h-155q-13 0 -22 -9.5t-9 -22t9 -22t22 -9.5
h155v-155q0 -13 9.5 -22t22 -9t22 9t9.5 22v155h155q13 0 22 9.5t9 22t-9 22t-22 9.5z" />
    <glyph glyph-name="uniE616" unicode="&#xe616;" 
d="M699 817h-82h-159h-80q-43 0 -75 -30t-32 -71v-7l-31 -1q-42 0 -72.5 -32.5t-30.5 -74.5v-541q0 -42 32.5 -75.5t74.5 -33.5h401q43 0 75 30t32 72v7h27q42 0 74.5 33t32.5 75v392v40zM699 762l134 -162h-81q-20 0 -36.5 29t-16.5 52v81zM699 55q0 -22 -16.5 -42.5
t-37.5 -20.5h-401q-21 0 -43.5 23.5t-22.5 44.5v541q0 21 21.5 43.5t41.5 22.5l30 1v-500q0 -42 32.5 -75t74.5 -33h321v-5zM846 168q0 -21 -23 -44t-44 -23h-414q-20 0 -37 22.5t-17 44.5v541q0 22 17 44.5t37 22.5h293v-122q0 -42 26 -68t68 -26h94v-392zM699 438h-241
q-11 0 -19 -8t-8 -19t8 -19t19 -8h241q11 0 19 8t8 19t-8 19t-19 8zM699 303h-241q-11 0 -19 -8t-8 -19t8 -19t19 -8h241q11 0 19 8t8 19t-8 19t-19 8z" />
    <glyph glyph-name="uniE617" unicode="&#xe617;" 
d="M920 676h-6h-807h-7h-21h-8v-580h879v580h-30zM879 640l-339 -350q-12 -12 -29.5 -12t-28.5 12l-340 350h737zM106 625l229 -235l-229 -235v470zM134 133l226 232l97 -101q22 -23 53.5 -23t54.5 23l97 101l225 -232h-753zM915 155l-228 235l228 235v-470z" />
    <glyph glyph-name="uniE618" unicode="&#xe618;" 
d="M880 604h-124l-106 133v1h-1q-20 22 -49 22h-176q-30 0 -51 -25l-105 -131h-127q-29 0 -49.5 -23t-20.5 -56v-439q0 -33 20.5 -55.5t49.5 -22.5h739q29 0 49.5 22.5t20.5 55.5v439q0 33 -20.5 56t-49.5 23zM510.5 138q-85.5 0 -146 60.5t-60.5 146.5t60.5 146.5t146 60.5
t146.5 -60.5t61 -146.5t-61 -146.5t-146.5 -60.5z" />
    <glyph glyph-name="uniE619" unicode="&#xe619;" 
d="M515.5 669q33.5 0 57 23.5t23.5 57t-23.5 57t-57 23.5t-57 -23.5t-23.5 -57t23.5 -57t57 -23.5zM515.5 467q-33.5 0 -57 -23.5t-23.5 -57t23.5 -57.5t57 -24t57 24t23.5 57.5t-23.5 57t-57 23.5zM515.5 103q-33.5 0 -57 -23.5t-23.5 -57t23.5 -57t57 -23.5t57 23.5
t23.5 57t-23.5 57t-57 23.5z" />
    <glyph glyph-name="uniE61A" unicode="&#xe61a;" 
d="M809 520q0 123 -88 210t-212.5 87t-212.5 -87t-88 -210q0 -69 30.5 -130t84.5 -103q-96 -48 -156 -137t-68 -197h45q8 102 69 185.5t154 119.5q74 -35 141 -35q68 0 130 30l31 18l25 16q53 42 84 103t31 130zM508 272q-104 0 -177.5 72.5t-73.5 175.5t73.5 176t178 73
t178 -73t73.5 -176q0 -104 -72 -176t-180 -72zM763 244l-1 -1q-8 8 -18 8q-28 0 -28 -21q0 -16 15 -24q118 -85 131 -253h55q-6 86 -46.5 162t-107.5 129z" />
    <glyph glyph-name="uniE61B" unicode="&#xe61b;" 
d="M679 497v273q-5 2 -15 6.5t-41.5 14t-63.5 14t-78.5 0.5t-90.5 -19zM704 337v421q7 -3 18 -8.5t40.5 -27.5t54.5 -47.5t51 -69t38 -92.5zM620 214l291 274q2 -4 5 -10.5t7.5 -31.5t4 -53.5t-10.5 -77t-32 -101.5h-265zM471 179h393q-2 -5 -6 -14t-21.5 -34t-39.5 -47
t-62.5 -46.5t-87.5 -39.5zM343 266v-256q4 -3 12 -7t35 -13t57 -13.5t77 -2.5t96 15zM115 253l199 179v-407q-5 2 -13.5 6t-33.5 21.5t-48 40.5t-52.5 65.5t-51.5 94.5zM110 282q-2 6 -4.5 16.5t-7 42.5t-4.5 63.5t8.5 73.5t25.5 78h274zM146 585q2 5 7 14t23 35t40.5 49
t61 50t82.5 44l187 -192h-401z" />
    <glyph glyph-name="uniE61C" unicode="&#xe61c;" 
d="M711 392q-14 2 -18.5 8t-0.5 11l3 4q1 3 3 6.5t5 14.5t4 22t-3.5 24.5t-15.5 23.5q-13 14 -34.5 18t-42.5 0.5t-40.5 -8.5t-31.5 -10l-12 -6q-10 -3 -16 -4t-9.5 0.5t-5.5 3t-1.5 7t1 9t2.5 11.5t3 13q0 15 -2.5 27t-10.5 25.5t-21 20.5t-38 6.5t-58 -11.5t-67 -34
t-59.5 -47.5t-46.5 -47t-32 -37.5l-11 -15q-20 -26 -33 -53t-18.5 -45t-7.5 -35.5t-2 -23.5v-8q5 -46 27.5 -82t53.5 -59t73 -38.5t80.5 -23t81.5 -10.5q71 -6 146.5 11t141 58t92.5 99q16 34 16 63.5t-10 48t-27 33t-31.5 21t-26.5 9.5zM421 94q-103 -5 -175 40t-72 114
q0 68 71.5 117.5t175.5 54.5q104 4 175.5 -35.5t71.5 -106.5q0 -70 -73 -125t-174 -59zM393 359q-38 -4 -64.5 -21t-37 -37.5t-16 -40.5t-4.5 -33l1 -13v-5q0 -3 2 -11t5.5 -15.5t11 -16.5t18.5 -14q62 -31 116.5 -19t88.5 56q16 20 17.5 51.5t-10.5 60t-45.5 46.5t-82.5 12
zM359 177.5q-19 -2.5 -32.5 7.5t-13.5 26q0 17 12.5 31t30.5 16q22 2 35.5 -9t13.5 -27t-13.5 -29t-32.5 -15.5zM439.5 247q-6.5 -5 -13.5 -4.5t-10 6.5q-4 6 -2.5 14t8.5 12q7 6 14 5t10.5 -7t1.5 -13.5t-8.5 -12.5zM778 448q8 0 14.5 5.5t7.5 13.5v2q4 31 -1 54.5
t-15.5 36.5t-24.5 22t-28.5 11.5t-26.5 3t-19 -0.5l-8 -1q-9 0 -16 -7t-7 -16t7 -16t16 -7q30 6 47 0.5t24 -18.5t8.5 -26.5t0.5 -23.5l-2 -11q0 -9 7 -15.5t16 -6.5zM762 713q-48 11 -113 -2l-1 -1h-2l-1 -1q-10 -2 -16.5 -11t-6.5 -20q0 -14 9.5 -23.5t22.5 -9.5
q18 2 30 7q5 0 16.5 1.5t31 -3.5t39 -12.5t40.5 -25t35 -41.5q25 -57 10 -109q-6 -17 -6 -32q0 -14 9 -22t23 -8t21.5 5t10.5 23q17 53 13 96.5t-18.5 75.5t-40.5 55.5t-52 37t-54 20.5z" />
    <glyph glyph-name="uniE61D" unicode="&#xe61d;" 
d="M664 527q13 0 30 -1q-20 92 -108.5 153t-202.5 61q-127 0 -217.5 -75.5t-90.5 -184.5q0 -120 123 -205l-31 -92l108 53q78 -15 108 -15q13 0 29 1q-10 33 -10 64q0 100 76.5 170.5t185.5 70.5zM499 610q17 0 27.5 -10.5t10.5 -27.5t-10.5 -27.5t-27.5 -10.5q-19 0 -33 11
t-14 27.5t14 27t33 10.5zM283 534q-18 0 -32 11t-14 27.5t14 27t32 10.5q17 0 27.5 -10.5t10.5 -27.5t-10.5 -27.5t-27.5 -10.5zM945 290q0 90 -78 155.5t-183 65.5q-110 0 -186 -64.5t-76 -156.5t76 -156.5t186 -64.5q31 0 92 15l85 -46l-23 76q107 80 107 176zM599 328
q-12 0 -21.5 9.5t-9.5 21t9.5 21t21.5 9.5q17 0 27.5 -9.5t10.5 -21.5t-10.5 -21t-27.5 -9zM768 328q-11 0 -20.5 9.5t-9.5 21t9.5 21t20.5 9.5q17 0 28 -9.5t11 -21.5t-11 -21t-28 -9z" />
    <glyph glyph-name="uniE61E" unicode="&#xe61e;" 
d="M424 781h-220q-34 0 -58.5 -24t-24.5 -58v-208q0 -3 1 -7q5 -29 28 -49t54 -20h220q29 2 50.5 21.5t26.5 47.5q1 4 1 7v208q0 33 -23 56.5t-55 25.5zM458 503q0 -19 -13 -31.5t-31 -12.5h-206q-18 0 -30.5 12.5t-12.5 31.5v191q0 18 12.5 31t30.5 13h206q18 0 31 -13
t13 -31v-191zM902 701q0 32 -22 55t-54 25h-192q-33 0 -57 -23.5t-24 -56.5v-203q0 -3 1 -6q5 -29 27.5 -48.5t52.5 -19.5h192q28 2 49 21t26 47q1 3 1 6v203zM859 509q0 -17 -12.5 -29.5t-29.5 -12.5h-178q-18 0 -30.5 12.5t-12.5 29.5v187q0 18 12.5 30.5t30.5 12.5h178
q17 0 29.5 -12.5t12.5 -30.5v-187zM416 356h-214q-34 0 -57.5 -23.5t-23.5 -56.5v-202q0 -3 1 -7q5 -29 27.5 -48t52.5 -19h214q28 2 49 21t25 46q2 4 2 7v202q-1 32 -23 55t-53 25zM449 85q0 -18 -12.5 -30.5t-30.5 -12.5h-193h-7q-18 0 -30.5 12.5t-12.5 30.5v186
q0 18 12.5 30.5t30.5 12.5h200q18 0 30.5 -12.5t12.5 -30.5v-186zM721 143q-11 0 -19 -7.5t-8 -18.5v-51q0 -11 8 -18.5t19 -7.5t19 7.5t8 18.5v51q0 11 -8 18.5t-19 7.5zM835 169q-11 0 -19 -7.5t-8 -18.5v-77q0 -11 8 -18.5t19 -7.5t18.5 7.5t7.5 18.5v77q0 11 -7.5 18.5
t-18.5 7.5zM835 323q-11 0 -19 -7.5t-8 -18.5v-51q0 -11 8 -18.5t19 -7.5t18.5 7.5t7.5 18.5v51q0 11 -7.5 18.5t-18.5 7.5zM721 323q-11 0 -19 -7.5t-8 -18.5v-103q0 -10 8 -17.5t19 -7.5t19 7.5t8 17.5v103q0 11 -8 18.5t-19 7.5zM606 194q-11 0 -19 -7.5t-8 -17.5v-103
q0 -11 8 -18.5t19 -7.5t19 7.5t8 18.5v103q0 10 -8 17.5t-19 7.5zM606 323q-11 0 -19 -7.5t-8 -18.5v-26q0 -10 8 -17.5t19 -7.5t19 7.5t8 17.5v26q0 11 -8 18.5t-19 7.5z" />
    <glyph glyph-name="uniE61F" unicode="&#xe61f;" 
d="M747 384q0 -39 27.5 -66.5t66 -27.5t66 27.5t27.5 66.5t-27.5 66.5t-66 27.5t-66 -27.5t-27.5 -66.5zM90 384q0 -39 27.5 -66.5t66 -27.5t66 27.5t27.5 66.5t-27.5 66.5t-66 27.5t-66 -27.5t-27.5 -66.5zM418 384q0 -39 27.5 -66.5t66.5 -27.5t66.5 27.5t27.5 66.5
t-27.5 66.5t-66.5 27.5t-66.5 -27.5t-27.5 -66.5z" />
    <glyph glyph-name="uniE620" unicode="&#xe620;" 
d="M640 -102q-26 0 -26 38v538q0 3 3.5 12.5t3.5 12.5l249 275h-684l249 -275q7 -6 7 -25v-327l70 -57q24 -25 6 -52q-16 -16 -51 7l-70 57q-13 13 -13 26v326l-275 314q-17 17 -7 38q10 20 32 20h788q22 0 32 -20q10 -21 -7 -38l-275 -314v-524q0 -13 -7.5 -22.5
t-24.5 -9.5z" />
    <glyph glyph-name="uniE621" unicode="&#xe621;" 
d="M299 -25q-12 5 -13 5q-37 10 -60.5 39.5t-23.5 67.5q-1 51 0 261q0 16 7 25t19.5 8.5t20 -9.5t7.5 -24v-123v-122q0 -39 16.5 -55.5t55.5 -16.5h369q36 0 52.5 16.5t16.5 53.5v120v120q0 20 4 24q16 15 29 15q10 -1 16 -8.5t6 -19.5v-177q0 -74 -1 -82q0 -44 -23 -73
t-65 -41l-9 -4h-424zM505 748q-13 -20 -14 -21q-117 -117 -374 -372q-13 -13 -20.5 -13.5t-18.5 10.5t-11 18.5t11 19.5l4 4q341 338 401 398q15 15 28 15t29 -15q243 -243 401 -400q14 -13 14.5 -20.5t-11.5 -19.5q-18 -19 -37 0q-3 4 -34 35q-261 259 -344 342
q-1 1 -12 19h-12z" />
    <glyph glyph-name="uniE622" unicode="&#xe622;" 
d="M511.5 -68q-5.5 0 -9.5 4l-306 306q-4 4 -4 9.5t4 9.5t10 4h612q5 0 9 -4t4 -9.5t-4 -9.5l-306 -306q-4 -4 -9.5 -4zM512 -98q18 0 30 13l306 306q13 13 13 30.5t-13 30.5t-30 13h-612q-18 0 -31 -13t-13 -30.5t13 -30.5l306 -306q13 -13 31 -13v0zM512 -98zM513 833
q5 0 10 -4l305 -306q5 -4 5 -9.5t-4.5 -9.5t-9.5 -4h-612q-5 0 -9.5 4t-4.5 9.5t4 9.5l306 306q5 4 10 4zM513 863q-18 0 -31 -13l-306 -306q-13 -13 -13 -30.5t13 -30.5t31 -13h612q18 0 31 13t13 30.5t-13 30.5l-306 306q-13 13 -31 13v0zM513 863z" />
    <glyph glyph-name="uniE623" unicode="&#xe623;" 
d="M943 390q-27 139 -149.5 230t-283 91t-283 -91t-149.5 -230q-1 -4 0 -9q27 -139 149.5 -230t283.5 -91q129 0 237 62q9 5 11 13.5t-2.5 16.5t-13.5 10.5t-18 -2.5q-97 -55 -214 -55q-143 0 -252.5 79t-134.5 202q25 122 134.5 201t252.5 79t252 -79t135 -201
q-19 -88 -84 -157q-7 -7 -6.5 -16t7.5 -15.5t16.5 -6t15.5 7.5q76 80 96 182q1 5 0 9zM329 380.5q0 -75.5 53.5 -128.5t129 -53t129 53t53.5 128.5t-53.5 128.5t-128.5 53q-76 0 -129.5 -53t-53.5 -128.5zM649 380.5q0 -56.5 -40.5 -96.5t-96.5 -40q-57 0 -97 40t-40 96.5
t40 96.5t96.5 40t97 -40t40.5 -96.5z" />
    <glyph glyph-name="uniE624" unicode="&#xe624;" 
d="M928 352h-832q-13 0 -22.5 9.5t-9.5 22.5t9.5 22.5t22.5 9.5h832q13 0 22.5 -9.5t9.5 -22.5t-9.5 -22.5t-22.5 -9.5zM832 -32h-192q-13 0 -22.5 9.5t-9.5 22.5t9.5 22.5t22.5 9.5h192q13 0 22.5 9.5t9.5 22.5v160q0 13 9.5 22.5t22.5 9.5t22.5 -9.5t9.5 -22.5v-160
q0 -40 -28 -68t-68 -28zM352 -32h-160q-40 0 -68 28t-28 68v160q0 13 9.5 22.5t22.5 9.5t22.5 -9.5t9.5 -22.5v-160q0 -13 9.5 -22.5t22.5 -9.5h160q13 0 22.5 -9.5t9.5 -22.5t-9.5 -22.5t-22.5 -9.5zM128 512q-13 0 -22.5 9.5t-9.5 22.5v160q0 40 28 68t68 28h160
q13 0 22.5 -9.5t9.5 -22.5t-9.5 -22.5t-22.5 -9.5h-160q-13 0 -22.5 -9.5t-9.5 -22.5v-160q0 -13 -9.5 -22.5t-22.5 -9.5zM896 512q-13 0 -22.5 9.5t-9.5 22.5v160q0 13 -9.5 22.5t-22.5 9.5h-192q-13 0 -22.5 9.5t-9.5 22.5t9.5 22.5t22.5 9.5h192q40 0 68 -28t28 -68v-160
q0 -13 -9.5 -22.5t-22.5 -9.5z" />
    <glyph glyph-name="uniE625" unicode="&#xe625;" 
d="M512 232q73 0 125 52t52 125v213q0 90 -50.5 142.5t-126.5 52.5q-30 0 -65 -16t-56 -36l-5 -5q-4 -4 -13.5 -18t-17 -30.5t-14 -45t-7.5 -60.5q0 -1 1 -3q-1 -3 -1 -5v-189q1 -73 53 -125t125 -52zM788 396zM767 426q-11 0 -18.5 -7.5t-8.5 -18.5q-6 -86 -72 -146
t-155.5 -60t-156 60t-73.5 146q-1 10 -8.5 16t-17.5 6t-18 -7.5t-8 -18.5q9 -100 79.5 -172t171.5 -82v-160q0 -13 9 -22t21.5 -9t21.5 9t9 22v160q99 10 170 82.5t80 171.5q0 11 -7.5 20.5t-18.5 9.5z" />
    <glyph glyph-name="uniE626" unicode="&#xe626;" 
d="M512 232q73 0 125 52t52 125v213q0 90 -50.5 142.5t-126.5 52.5q-30 0 -65 -16t-56 -36l-5 -5q-4 -4 -13.5 -18t-17 -30.5t-14 -45t-7.5 -60.5q0 -1 1 -3q-1 -3 -1 -5v-189q1 -73 53 -125t125 -52zM394 606q2 40 13 70t21 41l9 10q33 29 75 29q49 4 83.5 -37t34.5 -100
v-201q0 -52 -34.5 -88.5t-83.5 -36.5q-48 0 -83 37t-35 90v186zM788 396zM767 426q-11 0 -18.5 -7.5t-8.5 -18.5q-6 -86 -72 -146t-155.5 -60t-156 60t-73.5 146q-1 10 -8.5 16t-17.5 6t-18 -7.5t-8 -18.5q9 -100 79.5 -172t171.5 -82v-160q0 -13 9 -22t21.5 -9t21.5 9t9 22
v160q99 10 170 82.5t80 171.5q0 11 -7.5 20.5t-18.5 9.5z" />
    <glyph glyph-name="uniE627" unicode="&#xe627;" 
d="M848 282q-13 13 -30 13h-612q-18 0 -31 -13t-13 -30.5t13 -30.5l306 -306q13 -13 30.5 -13t30.5 13l306 306q13 13 13 30.5t-13 30.5zM848 282zM511.5 833q5.5 0 9.5 -4l306 -306q4 -4 4 -9.5t-4 -9.5t-9 -4h-612q-6 0 -10 4t-4 9.5t4 9.5l306 306q4 4 9.5 4zM512 863
q-18 0 -31 -13l-306 -306q-13 -13 -13 -30.5t13 -30.5t31 -13h612q17 0 30 13t13 30.5t-13 30.5l-306 306q-12 13 -30 13v0zM512 863z" />
    <glyph glyph-name="uniE628" unicode="&#xe628;" 
d="M924.5 673q-10.5 10 -25 9.5t-24.5 -11.5l-470 -500l-257 253q-10 10 -24.5 10t-25 -10.5t-10 -25t10.5 -24.5l282 -278l1 -1q1 -1 7 -5q1 0 2 -1t2 -1q6 -2 13 -2t13 2q1 1 3 2l1 1q6 4 8 5l1 1l494 526q10 11 9.5 25.5t-11 24.5z" />
    <glyph glyph-name="uniE629" unicode="&#xe629;" 
d="M820.5 691.5q-83.5 83.5 -196 113.5t-225 0t-195.5 -113q-63 -63 -95.5 -144.5t-32.5 -164t32.5 -164t95 -144t144 -95t164.5 -32.5t164.5 32.5t143.5 95.5q84 83 113.5 195.5t0 224.5t-113 195.5zM776 120q-72 -72 -168 -97.5t-192 0t-167.5 97t-97 168t0 192.5
t97 167.5t167.5 97t192 0t168 -96.5q53 -54 81 -124t28 -140.5t-28 -140.5t-81 -123zM768 540q-8 8 -21 7.5t-21 -8.5l-271 -288l-144 142q-9 9 -22 8.5t-21 -8.5q-9 -9 -9 -21.5t9 -21.5l166 -164l1 -1h1q2 -2 5 -4l4 -2q5 -2 11 -2t12 3q1 0 4 2t5 4l293 311q8 9 8 21.5
t-10 21.5z" />
    <glyph glyph-name="uniE62A" unicode="&#xe62a;" 
d="M195 417q12 0 20.5 9t8.5 21t-8.5 20.5t-21.5 8.5h-61h-4q-16 0 -27.5 -11.5t-11.5 -27.5v-424q0 -16 11 -27.5t27 -11.5h2h2h2h60h1v1v-1l4 1q10 2 16.5 9.5t6.5 18t-6.5 18.5t-16.5 10h-50l1 386h45zM918 460q-27 44 -82 46h-6l-196 1q21 63 21 123q0 41 -9 81l-1 4
q-9 35 -37.5 57t-64.5 22q-41 0 -69 -31t-28 -77v-3v-6q-2 -76 -56 -133t-132 -66l-4 -1v-274v-229h13h1h3h486h9q23 0 48 17q25 16 38 42q4 6 6 12l75 337q1 6 1 13q3 35 -16 65zM879 407l-1 -4h1l-81 -355q-3 -9 -11 -14q-5 -3 -11 -4h-1h-3l-463 1v392q72 33 115.5 68.5
t67.5 99.5l1 3q6 17 9 33q5 30 5 58q-3 20 9 33q12 14 30 14q16 0 31 -17t15 -31q5 -48 5 -55q0 -30 -3 -52h-1l-1 -3q-8 -44 -29 -84l-1 -3q-3 -7 -3 -14q0 -25 42 -25l233 -1h8h3v-1l6 1q16 0 25 -15q7 -11 3 -25z" />
    <glyph glyph-name="uniE62B" unicode="&#xe62b;" 
d="M843 82q0 50 -35.5 85.5t-85.5 35.5q-43 0 -77 -29l-238 153q15 28 15 57q0 27 -13 52l239 156q33 -27 74 -27q50 0 85.5 35.5t35.5 85.5t-35.5 85.5t-85 35.5t-85 -35.5t-35.5 -85.5q0 -24 9 -46l-239 -156l2 -4q-33 25 -72 25q-50 0 -85.5 -35.5t-35.5 -85.5
t35.5 -85.5t85.5 -35.5q33 0 63 19l245 -158q-8 -21 -8 -42q0 -50 35.5 -85.5t85 -35.5t85 35.5t35.5 85.5v0zM689 636l-25 38v-1q-2 7 -2 13q0 25 17.5 43t42.5 18t43 -18t18 -43t-18 -42.5t-43 -17.5q-18 0 -33 10v0zM241 384q0 25 18 42.5t42.5 17.5t42.5 -17.5t18 -42.5
t-18 -42.5t-42.5 -17.5t-42.5 17.5t-18 42.5zM662 82q0 25 17.5 42.5t42.5 17.5t42.5 -17.5t17.5 -42.5t-17.5 -43t-42.5 -18t-42.5 18t-17.5 43v0z" />
    <glyph glyph-name="uniE62C" unicode="&#xe62c;" 
d="M866 313q-12 0 -21 -9t-9 -21v-215q0 -14 -9.5 -23.5t-22.5 -9.5h-622q-14 0 -23.5 9.5t-9.5 23.5v536q0 13 9.5 22.5t23.5 9.5h291q12 1 21 9.5t9 21t-9 21t-21 8.5h-295q-37 0 -62.5 -26t-25.5 -62v-544q0 -37 25.5 -62.5t62.5 -25.5h630q36 0 62 25.5t26 62.5v219
q0 12 -9 21t-21 9zM931 558l-204 204l-6 7l-1 -1q-7 4 -15 4q-13 0 -22 -9t-9 -22q0 -8 4 -15l-1 -1l142 -142h-146q-69 -9 -121 -32.5t-86 -56.5t-56 -83.5t-32.5 -104.5t-16.5 -127q0 -13 9 -22t22 -9q23 0 29 22l2 8q5 69 14.5 117t26.5 90.5t44.5 68.5t68 43.5
t98.5 23.5h144l-136 -136l-5 -8q-3 -6 -3 -13q0 -13 9 -22t22 -9q8 0 14 3l210 209q4 3 4 7t-3 6z" />
    <glyph glyph-name="uniE62D" unicode="&#xe62d;" 
d="M873 140zM811 786h-613q-34 0 -58.5 -24t-24.5 -58v-614q0 -34 24.5 -58.5t58.5 -24.5h613q35 0 59 24.5t24 58.5v46v18v550q0 34 -24 58t-59 24zM842 154v-18v-42q0 -15 -10 -25t-25 -10h-605q-15 0 -25 10t-10 25v605q0 15 10 25t25 10h605q15 0 25 -10t10 -25v-545z
M720 490l-176 -196l-126 89q-8 8 -19 8h-1h-2q-12 0 -21 -9l-126 -170q-9 -8 -9 -19.5t8.5 -20t20 -8.5t20.5 9l114 152l124 -88q9 -8 22 -8q11 0 20 8l191 213q9 9 9 20.5t-9 19.5q-8 8 -19.5 8t-20.5 -8zM376 470q30 0 51 21t21 51t-21 51.5t-51 21.5t-51.5 -21.5
t-21.5 -51.5t21.5 -51t51.5 -21zM376 564q9 0 15 -6.5t6 -15t-6 -15t-15 -6.5t-15.5 6.5t-6.5 15t6.5 15t15.5 6.5z" />
    <glyph glyph-name="uniE62E" unicode="&#xe62e;" 
d="M175 483q13 -13 31 -13h612q17 0 30 13t13 30.5t-13 30.5l-306 306q-13 13 -30.5 13t-30.5 -13l-306 -306q-13 -13 -13 -30.5t13 -30.5zM175 483zM511.5 -68q-5.5 0 -9.5 4l-306 306q-4 4 -4 9.5t4 9.5t10 4h612q5 0 9 -4t4 -9.5t-4 -9.5l-306 -306q-4 -4 -9.5 -4z
M512 -98q18 0 30 13l306 306q13 13 13 30.5t-13 30.5t-30 13h-612q-18 0 -31 -13t-13 -30.5t13 -30.5l306 -306q13 -13 31 -13v0zM512 -98z" />
    <glyph glyph-name="uniE62F" unicode="&#xe62f;" 
d="M45 691h948q13 0 22.5 9.5t9.5 22.5t-9.5 22t-22.5 9h-948q-13 0 -22.5 -9t-9.5 -22t9.5 -22.5t22.5 -9.5zM993 59h-948q-13 0 -22.5 -9.5t-9.5 -22.5t9.5 -22t22.5 -9h948q13 0 22.5 9t9.5 22t-9.5 22.5t-22.5 9.5zM993 407h-948q-13 0 -22.5 -9.5t-9.5 -22.5t9.5 -22.5
t22.5 -9.5h948q13 0 22.5 9.5t9.5 22.5t-9.5 22.5t-22.5 9.5z" />
    <glyph glyph-name="uniE630" unicode="&#xe630;" 
d="M808 683q-81 81 -189.5 109.5t-217.5 0t-190 -109.5t-110 -190t0 -218t110 -190t190 -109.5t217.5 0t189.5 109.5t110 190t0 218t-110 190zM765 128q-69 -69 -162 -93.5t-186.5 0t-163 94t-94 162.5t0 186t94 162.5t163 94.5t186.5 0t162 -94q52 -52 79.5 -119.5
t27.5 -136.5t-27.5 -136.5t-79.5 -119.5zM500.5 210q-15.5 0 -26 -11t-10.5 -26t10.5 -26t26 -11t26.5 11t11 26t-11 26t-26.5 11zM506 631q-54 0 -98 -28.5t-61 -75.5q-12 -31 -5 -59q2 -10 11.5 -16t19.5 -3q11 2 16.5 11t3.5 20q-3 13 3 29q10 29 39.5 49t70.5 20
q51 0 83.5 -23.5t32.5 -61.5q0 -26 -14 -40t-50 -32q-19 -10 -29.5 -16.5t-25.5 -18.5t-22 -28.5t-7 -37.5v-54q0 -11 7.5 -18.5t18.5 -7.5t19 7.5t8 18.5v54q0 17 12 28t43 26q21 11 32.5 18t28 21.5t24.5 34t8 45.5q0 61 -47 99.5t-122 38.5z" />
    <glyph glyph-name="uniE631" unicode="&#xe631;" 
d="M726 405h-425q-12 0 -20.5 -8.5t-8.5 -20t8.5 -20t20.5 -8.5h425q12 0 20.5 8.5t8.5 20t-8.5 20t-20.5 8.5zM835 753h-653q-36 0 -62 -26t-26 -62v-562q0 -36 26 -62t62 -26h653q36 0 62 26t26 62v49v19v494q0 36 -26 62t-62 26zM868 171v-19v-45q0 -15 -11 -26t-26 -11
h-645q-15 0 -25.5 11t-10.5 26v554q0 15 10.5 26t25.5 11h645q15 0 26 -11t11 -26v-490zM639 246h-338q-12 0 -20.5 -8t-8.5 -20t8.5 -20.5t20.5 -8.5h338q12 0 20.5 8.5t8.5 20.5t-8.5 20t-20.5 8zM726 564h-425q-12 0 -20.5 -8.5t-8.5 -20.5t8.5 -20.5t20.5 -8.5h425
q12 0 20.5 8.5t8.5 20.5t-8.5 20.5t-20.5 8.5z" />
    <glyph glyph-name="uniE632" unicode="&#xe632;" 
d="M512 645q-55 0 -94.5 -38.5t-39.5 -92.5t39.5 -92.5t94.5 -38.5t94.5 38.5t39.5 92.5t-39.5 92.5t-94.5 38.5zM512 441q-31 0 -52.5 21.5t-21.5 51.5t21.5 51.5t52.5 21.5t52.5 -21.5t21.5 -51.5t-21.5 -51.5t-52.5 -21.5zM825 494q0 127 -92 217.5t-221 90.5t-221 -90.5
t-92 -217.5q0 -46 30 -117.5t78.5 -148.5t87.5 -133.5t80 -109.5q14 -19 37 -19t37 19q41 53 80 109t87.5 133.5t78.5 149t30 117.5zM517 31l-5 -6l-5 6q-117 156 -185.5 280.5t-68.5 182.5q0 105 76 179.5t183 74.5t183 -74.5t76 -179.5q0 -58 -68.5 -182.5t-185.5 -280.5z
" />
    <glyph glyph-name="uniE633" unicode="&#xe633;" 
d="M914 464q-4 20 -15 31.5t-26 11.5h-4q-41 0 -70 29t-29 70q0 17 9 38q7 17 2 35.5t-20 29.5l-103 57h-1q-16 7 -34.5 3.5t-29.5 -15.5q-14 -14 -37 -29t-42 -15t-42 15.5t-37 29.5q-11 12 -29.5 15.5t-34.5 -2.5l-106 -58l-2 -1q-15 -11 -20 -29.5t2 -35.5q9 -21 9 -38
q0 -41 -29 -70t-70 -29h-5q-14 0 -25 -11.5t-15 -31.5q-9 -43 -9 -80q0 -38 9 -81q4 -19 15 -30.5t26 -11.5h4q41 0 70 -29t29 -70q0 -18 -9 -38q-7 -17 -2 -35.5t20 -29.5l101 -56l1 -1q16 -7 34.5 -3t30.5 16q14 16 37.5 31.5t42.5 15.5q20 0 43.5 -16.5t37.5 -31.5
q16 -18 42 -18q12 0 22 4l104 58l2 1q15 11 20 29.5t-2 35.5q-9 21 -9 38q0 41 29 70t70 29h5q14 0 25 11.5t15 30.5q9 45 9 81q0 35 -9 80zM863 384q0 -25 -7 -64q-61 -5 -103 -50.5t-42 -107.5q0 -27 11 -57l-89 -49q-16 17 -35 31q-47 35 -88 35t-88 -34q-19 -15 -34 -31
l-86 48q11 30 11 57q0 62 -42 107.5t-103 50.5q-7 38 -7 63.5t7 64.5q61 5 103 50.5t42 107.5q0 26 -11 56l91 50q16 -16 35 -29q46 -33 86 -33t85 32q17 12 35 29l88 -49q-11 -29 -11 -56q0 -62 42 -107.5t103 -50.5q7 -39 7 -64zM510.5 530q-60.5 0 -103.5 -42.5t-43 -103
t43 -103.5t103.5 -43t103 43t42.5 103.5t-42.5 103t-103 42.5zM597 384q0 -35 -25.5 -60.5t-61.5 -25.5t-61 25.5t-25 61t25 61t61 25.5t61.5 -25.5t25.5 -61.5z" />
    <glyph glyph-name="uniE634" unicode="&#xe634;" 
d="M810.5 682.5q-60.5 60.5 -139.5 92t-159 31.5t-159 -31.5t-139.5 -92t-92 -139.5t-31.5 -159t31.5 -159t92.5 -139q81 -81 189.5 -110t217 0t189.5 110q61 60 92.5 139t31.5 159t-31.5 159t-92 139.5zM767.5 128.5q-69.5 -69.5 -162.5 -94t-186 0t-162.5 94t-94 162.5
t0 186t94 162.5t162.5 94t186 0t162.5 -94t94 -162.5t0 -186t-94 -162.5zM721 375h-206v227q0 12 -8 20t-19 8t-19.5 -8t-8.5 -20v-235q0 -21 13 -34q12 -13 35 -13h213q12 0 20 8t8 19t-8 19t-20 9z" />
    <glyph glyph-name="uniE635" unicode="&#xe635;" 
d="M917 170q-8 -9 -21 -9q-15 0 -26 11l-358 360l-358 -360q-11 -11 -26 -11q-13 0 -21 9q-10 9 -9 23t11 24l377 379q10 11 25 11h3q14 -1 24 -11l377 -379q10 -10 11 -24t-9 -23z" />
    <glyph glyph-name="uniE636" unicode="&#xe636;" 
d="M917 598q-8 9 -21 9q-15 0 -26 -11l-358 -360l-358 360q-11 11 -26 11q-13 0 -21 -9q-10 -9 -9 -23t11 -24l377 -379q10 -11 25 -11h3q14 1 24 11l377 379q10 10 11 24t-9 23z" />
    <glyph glyph-name="uniE637" unicode="&#xe637;" 
d="M809 681q-60 60 -138.5 91.5t-158.5 31.5t-158.5 -31.5t-138.5 -91.5t-91.5 -138.5t-31.5 -158.5t31.5 -158.5t91.5 -138.5t138.5 -91.5t158.5 -31.5t158.5 31.5t138.5 91.5t91.5 138.5t31.5 158.5t-31.5 158.5t-91.5 138.5zM766 130q-69 -69 -161.5 -93.5t-185 0
t-161.5 93.5t-93.5 161.5t0 185t93.5 161.5t161.5 93.5t185 0t161.5 -93.5t93.5 -161.5t0 -185t-93.5 -161.5zM514 598q-19 0 -32 -13.5t-13 -32t13 -32t32 -13.5t32 13.5t13 32t-13 32t-32 13.5zM514 469q-14 0 -24 -10t-10 -24v-268q0 -14 10 -24t24 -10t24 10t10 24v268
q0 14 -10 24t-24 10z" />
    <glyph glyph-name="uniE638" unicode="&#xe638;" 
d="M34 665h-25v-25v-598q0 -52 36.5 -89t88.5 -37h794h25v25v484q0 10 -7.5 17.5t-17.5 7.5t-17.5 -7.5t-7.5 -17.5v-484l25 25h-794q-31 0 -53 22.5t-22 53.5v598l-25 -25h565q10 0 17.5 7t7.5 17.5t-7.5 18t-17.5 7.5h-565zM437 302l-5 -6v-9l-4 -149l-1 -36l34 12l144 51
l7 3l4 6l387 511l16 20l-21 16l-129 97l-19 15l-15 -20zM840 778l128 -98l-4 36l-387 -511l11 8l-143 -52l33 -24l4 149l-6 -15l398 511zM891 585l29 41l-112 82l-29 -41z" />
    <glyph glyph-name="uniE639" unicode="&#xe639;" 
d="M973 -38l25 25h-870q-32 0 -54.5 23t-22.5 55v720l-25 -26h870q32 0 54.5 -22.5t22.5 -54.5v-65q0 -10 7.5 -17.5t18 -7.5t18 7.5t7.5 17.5v65q0 53 -37.5 91t-90.5 38h-870h-26v-26v-720q0 -54 37.5 -91.5t90.5 -37.5h870h26v26v476q0 11 -7.5 18.5t-18 7.5t-18 -7.5
t-7.5 -18.5v-476zM513 329q13 -10 27 -2l463 255q9 5 12 15.5t-2 20t-15.5 12.5t-19.5 -3l-463 -255l27 -1l-348 248q-9 7 -19.5 5t-16.5 -10.5t-4 -19t10 -16.5z" />
    <glyph glyph-name="uniE63A" unicode="&#xe63a;" 
d="M472 824q10 23 17 22.5t17 -22.5l114 -265q4 -9 13.5 -13t19 0t13.5 13.5t0 19.5l-113 264q-23 53 -63 53t-64 -52l-119 -260q-5 -10 -1 -19.5t13.5 -13.5t19 -0.5t14.5 13.5zM946 500q25 -3 27.5 -9.5t-16.5 -22.5l-221 -188q-8 -7 -9 -17t6 -18t17.5 -8.5t18.5 5.5
l221 188q44 37 32 75t-70 44l-289 31q-11 1 -19 -5.5t-9 -17t5.5 -18.5t16.5 -9zM789 -50q5 -24 -0.5 -28t-27.5 8l-250 149q-9 5 -19 2.5t-15.5 -11t-3 -18.5t11.5 -16l250 -148q50 -30 83 -7t21 79l-60 279q-2 11 -10.5 16.5t-19 3.5t-16 -11t-3.5 -19zM233 -67
q-22 -13 -27.5 -8.5t-0.5 28.5l67 279q2 10 -3.5 18.5t-15.5 11t-19 -3t-12 -15.5l-66 -279q-13 -56 19 -79.5t83 5.5l252 142q9 5 12 14.5t-2.5 18.5t-15.5 12t-19 -2zM130 395l-88 78q-8 7 -18 6.5t-17 -8.5t-6.5 -18t7.5 -17l88 -78l128 -114q8 -6 18 -5.5t17 8t6.5 17.5
t-7.5 17zM180 514q15 1 31 3q37 4 76 8q13 2 24 3q6 1 9 1q10 1 16.5 9.5t5.5 18.5t-9.5 16.5t-18.5 4.5q-3 0 -9 -1q-11 -1 -23 -2q-40 -5 -76 -9q-16 -2 -31 -3q-31 -3 -56 -5q-10 -1 -17 -9t-6 -18t9 -16.5t18 -6.5q26 3 57 6z" />
    <glyph glyph-name="uniE63B" unicode="&#xe63b;" 
d="M1024 550q0 52 -36.5 88.5t-88.5 36.5h-375l18 -7l-127 124l-7 7h-10h-348h-25v-25v-678q0 -52 36.5 -88.5t87.5 -36.5h738q11 0 18 7t7 17.5t-7 18t-18 7.5h-738q-30 0 -52 22t-22 53v678l-25 -25h348l-17 7l126 -124l7 -7h10h375q31 0 53 -22t22 -53v-443
q0 -10 7 -17.5t17.5 -7.5t18 7.5t7.5 17.5v443zM1016 410v50h-988v-50h988z" />
    <glyph glyph-name="uniE63C" unicode="&#xe63c;" 
d="M836 847q30 0 52 -21.5t22 -51.5v-713l7 17l-162 -165l18 8h-585q-30 0 -52 21.5t-22 51.5v878l-25 -25h747zM64 896v-24v-878q0 -51 36.5 -86.5t87.5 -35.5h585h11l7 7l162 165l7 7v10v713q0 51 -36.5 86.5t-87.5 35.5h-747h-25zM736 189q-31 0 -53 -21.5t-22 -51.5
v-146q0 -11 7.5 -18t18 -7t17.5 7t7 18v146q0 10 7.5 17t17.5 7h112q10 0 17.5 7t7.5 17.5t-7.5 17.5t-17.5 7h-112zM775 677q10 0 17.5 7t7.5 17t-7.5 17t-17.5 7h-512q-10 0 -17.5 -7t-7.5 -17t7.5 -17t17.5 -7h512zM775 530q10 0 17.5 7.5t7.5 17.5t-7.5 17t-17.5 7h-512
q-10 0 -17.5 -7t-7.5 -17t7.5 -17.5t17.5 -7.5h512zM775 360q10 0 17.5 7t7.5 17t-7.5 17t-17.5 7h-512q-10 0 -17.5 -7t-7.5 -17t7.5 -17t17.5 -7h512z" />
    <glyph glyph-name="uniE63D" unicode="&#xe63d;" 
d="M797 519h-22v105q0 103 -78 176.5t-185 73.5t-185 -73.5t-78 -176.5v-105h-24q-61 0 -101.5 -38.5t-40.5 -97.5v-356q0 -61 41 -108t101 -47h572q59 0 101.5 47.5t42.5 107.5v356q0 59 -41.5 97.5t-102.5 38.5zM304 624q0 84 61 143.5t147 59.5t147 -59.5t61 -143.5v-105
h-416v105zM886 27q0 -41 -25 -71t-64 -30h-572q-39 0 -63 30t-24 71v356q0 40 23 61t64 21h578l-5 2q41 0 64.5 -22t23.5 -62v-356zM516 364q-42 0 -72 -29.5t-30 -70.5q0 -30 17 -57t44 -39l-16 -161h115l-16 161q26 12 43 39t17 57q0 41 -29.5 70.5t-72.5 29.5z" />
    <glyph glyph-name="uniE63E" unicode="&#xe63e;" 
d="M1023 340q0 -75 -53.5 -128.5t-128.5 -53.5h-185q-9 0 -15 6t-6 14.5t6 14.5t15 6h185q58 0 99.5 41.5t41.5 99.5t-41 99t-99 42l-1 -1q-10 0 -16 7t-5 16q2 16 2 29q0 94 -67 160.5t-161 66.5q-72 0 -131 -42q-57 -41 -82 -107q-4 -10 -15 -12.5t-19 5.5
q-29 30 -71.5 30t-72.5 -30t-30 -72v-2v-3q1 -16 -15 -20q-50 -14 -82 -55q-32 -42 -32 -96q0 -64 45.5 -110t110.5 -46h170q8 0 14 -6t6 -14.5t-6 -14.5t-14 -6h-170q-82 0 -139.5 58t-57.5 139q0 68 41 121q35 45 88 65q4 56 45.5 94.5t97.5 38.5q43 0 79 -24
q30 61 85 101q70 49 155 49q111 0 190 -78.5t79 -189.5q0 -6 -1 -12q68 -8 114.5 -59.5t46.5 -120.5zM629 307q-6 -6 -14.5 -6t-14.5 6l-67 67v-359q0 -8 -6 -14t-14.5 -6t-14.5 6t-6 14v359l-67 -67q-6 -6 -14.5 -6t-14.5 6t-6 14.5t6 14.5l102 102q6 6 14.5 6t14.5 -6
l102 -102q6 -6 6 -14.5t-6 -14.5z" />
    <glyph glyph-name="uniE63F" unicode="&#xe63f;" 
d="M768 768h-576q-53 0 -90.5 -37.5t-37.5 -90.5v-576q0 -53 37.5 -90.5t90.5 -37.5h576q53 0 90.5 37.5t37.5 90.5v576q0 53 -37.5 90.5t-90.5 37.5zM832 64q0 -29 -17.5 -46.5t-46.5 -17.5h-576q-29 0 -46.5 17.5t-17.5 46.5v576q0 29 17.5 46.5t46.5 17.5h576
q29 0 46.5 -17.5t17.5 -46.5v-576zM672 384h-160v160q0 14 -9 23t-23 9t-23 -9t-9 -23v-160h-160q-14 0 -23 -9t-9 -23t9 -23t23 -9h160v-160q0 -14 9 -23t23 -9t23 9t9 23v160h160q14 0 23 9t9 23t-9 23t-23 9z" />
    <glyph glyph-name="uniE640" unicode="&#xe640;" 
d="M768 768h-576q-53 0 -90.5 -37.5t-37.5 -90.5v-576q0 -53 37.5 -90.5t90.5 -37.5h576q53 0 90.5 37.5t37.5 90.5v576q0 53 -37.5 90.5t-90.5 37.5zM832 64q0 -29 -17.5 -46.5t-46.5 -17.5h-576q-29 0 -46.5 17.5t-17.5 46.5v576q0 29 17.5 46.5t46.5 17.5h576
q29 0 46.5 -17.5t17.5 -46.5v-576zM288 320q-14 0 -23 9t-9 23t9 23t23 9h384q14 0 23 -9t9 -23t-9 -23t-23 -9h-384z" />
    <glyph glyph-name="uniE641" unicode="&#xe641;" 
d="M475 320l-35 -4l228 -144l16 -11l15 12l313 231l12 9v14v260q0 60 -41.5 102.5t-100.5 42.5h-854h-28v-29v-722q0 -60 41.5 -102.5t100.5 -42.5h854h28v29v260q0 12 -8.5 20.5t-20 8.5t-20 -8.5t-8.5 -20.5v-260l29 29h-854q-35 0 -60 25.5t-25 61.5v722l-29 -29h854
q35 0 60 -25.5t25 -61.5v-260l12 24l-313 -231l32 1l-228 144l-19 12l-16 -16l-228 -231q-8 -9 -8 -21t8.5 -20t20 -8t20.5 8zM341 557.5q0 41.5 -29 71.5t-70 30t-70.5 -30t-29.5 -71.5t29.5 -71.5t70.5 -30t70 30t29 71.5zM199 557q0 18 12.5 31t30 13t30 -13t12.5 -31
t-12.5 -30.5t-30 -12.5t-30 12.5t-12.5 30.5z" />
    <glyph glyph-name="uniE642" unicode="&#xe642;" 
d="M512 896q-139 0 -257 -68.5t-186.5 -186.5t-68.5 -257t68.5 -257t186.5 -186.5t257 -68.5q123 0 231 54.5t180 151t93 216.5q3 17 5 34q1 11 -5.5 19t-16.5 9t-18.5 -5.5t-9.5 -16.5q-1 -16 -4 -31q-29 -165 -158 -273t-297 -108q-94 0 -179.5 36.5t-147.5 98.5
t-98.5 147.5t-36.5 179.5t36.5 179.5t98.5 147.5t147.5 98.5t179.5 36.5q139 0 254.5 -76t169.5 -203q4 -9 14 -13t19.5 0t13 14t-0.5 19q-60 140 -188 224.5t-282 84.5zM958 546l25 25h-259q-10 0 -17.5 -7.5t-7.5 -18t7.5 -17.5t17.5 -7h259q11 0 18 7t7 18v275
q0 10 -7 17.5t-17.5 7.5t-18 -7.5t-7.5 -17.5v-275z" />
    <glyph glyph-name="uniE643" unicode="&#xe643;" 
d="M887 773q30 0 51.5 -21.5t21.5 -52.5v-467l24 25h-847q-30 0 -51.5 21.5t-21.5 52.5v467l-24 -25h847zM16 822v-24v-467q0 -51 35.5 -87t85.5 -36h847h24v24v467q0 51 -35.5 87t-85.5 36h-847h-24zM196 -69q-7 -7 -6.5 -17.5t7.5 -17t17 -6.5t17 8l219 242q7 8 6.5 18
t-7.5 17t-17 6.5t-17 -8.5zM798 -102q7 -8 17 -8t17.5 6.5t8 17t-6.5 17.5l-219 242q-7 8 -17 8.5t-17.5 -6.5t-8 -17t6.5 -18zM442 792q0 -8 7 -13.5t17 -5.5t17 5.5t7 13.5v85q0 8 -7 13.5t-17 5.5t-17 -5.5t-7 -13.5v-85zM515 589q10 0 17 7t7 17.5t-7 17.5t-17 7h-356
q-10 0 -17.5 -7t-7.5 -17.5t7.5 -17.5t17.5 -7h356zM515 431q10 0 17 7t7 17.5t-7 17.5t-17 7h-356q-10 0 -17.5 -7t-7.5 -17.5t7.5 -17.5t17.5 -7h356zM680 344q78 61 78 174v161q0 10 -7 17.5t-17 7.5t-17 -7.5t-7 -17.5v-161q0 -89 -59 -136q-19 -14 -41 -23
q-11 -4 -18 -5q-9 -2 -15 -10.5t-4 -18.5t10.5 -16t18.5 -4q39 8 78 39zM753 663q6 8 5 18.5t-8.5 17t-17.5 5.5t-17 -9l-109 -135q-7 -8 -6 -18t9 -16.5t18 -5.5t16 9zM753 695q-7 8 -17 9t-17.5 -5.5t-8.5 -17t5 -18.5l110 -134q6 -8 16 -9t18 5.5t9 16.5t-6 18z" />
    <glyph glyph-name="uniE644" unicode="&#xe644;" 
d="M147 846h202q31 0 53 -22t22 -53v-224q0 -32 -22 -54t-53 -22h-202q-31 0 -53 22t-22 54v224q0 31 22 53t53 22zM21 547q0 -52 37 -89t89 -37h202q52 0 88.5 37t36.5 89v224q0 52 -36.5 88.5t-88.5 36.5h-202q-52 0 -89 -36.5t-37 -88.5v-224zM675 846h202q31 0 53 -22
t22 -53v-224q0 -32 -22 -54t-53 -22h-202q-31 0 -53 22t-22 54v224q0 31 22 53t53 22zM550 547q0 -52 36.5 -89t88.5 -37h202q52 0 89 37t37 89v224q0 52 -37 88.5t-89 36.5h-202q-52 0 -88.5 -36.5t-36.5 -88.5v-224zM147 297h202q31 0 53 -22t22 -54v-224q0 -31 -22 -53
t-53 -22h-202q-31 0 -53 22t-22 53v224q0 32 22 54t53 22zM21 -3q0 -52 37 -88.5t89 -36.5h202q52 0 88.5 36.5t36.5 88.5v224q0 52 -36.5 89t-88.5 37h-202q-52 0 -89 -37t-37 -89v-224zM875 -78h-7h-23h-69h-101q-31 0 -53 22t-22 53v224q0 32 22 54t53 22h202
q31 0 53 -22t22 -53v-195v-30q0 -10 7.5 -17.5t18 -7.5t18 7.5t7.5 17.5v30v195q0 51 -37 88t-89 37h-202q-52 0 -88.5 -37t-36.5 -89v-224q0 -52 36.5 -88.5t88.5 -36.5h101h69h23h7h1q11 0 18.5 7.5t7.5 17.5t-7.5 17.5t-17.5 7.5h-2z" />
    <glyph glyph-name="uniE645" unicode="&#xe645;" 
d="M147 846h200q31 0 53 -22t22 -53v-224q0 -32 -22 -54t-53 -22h-200q-32 0 -54 22t-22 54v224q0 31 22 53t54 22zM21 547q0 -52 37 -89t89 -37h200q52 0 89 37t37 89v224q0 52 -37 88.5t-89 36.5h-200q-52 0 -89 -36.5t-37 -88.5v-224zM147 297h200q31 0 53 -22t22 -54
v-224q0 -31 -22 -53t-53 -22h-200q-32 0 -54 22t-22 53v224q0 32 22 54t54 22zM21 -3q0 -52 37 -88.5t89 -36.5h200q52 0 89 36.5t37 88.5v224q0 52 -37 89t-89 37h-200q-52 0 -89 -37t-37 -89v-224zM999 746q10 0 17.5 7.5t7.5 17.5t-7.5 17.5t-17.5 7.5h-426
q-11 0 -18 -7.5t-7 -17.5t7 -17.5t18 -7.5h426zM999 621q10 0 17.5 7.5t7.5 18t-7.5 17.5t-17.5 7h-426q-11 0 -18 -7t-7 -17.5t7 -18t18 -7.5h426zM999 496q10 0 17.5 7.5t7.5 18t-7.5 17.5t-17.5 7h-426q-11 0 -18 -7t-7 -17.5t7 -18t18 -7.5h426zM999 222q10 0 17.5 7
t7.5 17.5t-7.5 18t-17.5 7.5h-426q-11 0 -18 -7.5t-7 -18t7 -17.5t18 -7h426zM999 97q10 0 17.5 7t7.5 17.5t-7.5 18t-17.5 7.5h-426q-11 0 -18 -7.5t-7 -18t7 -17.5t18 -7h426zM999 -28q10 0 17.5 7.5t7.5 17.5t-7.5 17.5t-17.5 7.5h-426q-11 0 -18 -7.5t-7 -17.5t7 -17.5
t18 -7.5h426z" />
    <glyph glyph-name="uniE646" unicode="&#xe646;" 
d="M1024 384q0 139 -68.5 257t-186.5 186.5t-257 68.5t-257 -68.5t-186.5 -186.5t-68.5 -257t68.5 -257t186.5 -186.5t257 -68.5q172 0 309 104q8 6 9.5 16t-4.5 18t-16 9.5t-18 -4.5q-124 -94 -280 -94q-94 0 -180 36.5t-148 98.5t-98.5 148t-36.5 180t36.5 180t98.5 148
t148 98.5t180 36.5t180 -36.5t148 -98.5t98.5 -148t36.5 -180q0 -144 -81 -262q-5 -8 -3.5 -18t10 -15.5t18.5 -4t16 10.5q89 130 89 289zM488 286q0 -10 7 -17t17 -7t17 7t7 17v366q0 10 -7 17.5t-17 7.5t-17 -7.5t-7 -17.5v-366zM482 424q-7 8 -17 8.5t-17.5 -6
t-8.5 -16.5t6 -18l171 -195q6 -7 16 -8t18 6t8.5 17t-6.5 17z" />
    <glyph glyph-name="uniE647" unicode="&#xe647;" 
d="M0 461v-175q0 -26 18.5 -45t45.5 -19h165l-15 6l255 -256q23 -22 45 -13t22 41v747q0 32 -22 41t-45 -14l-255 -256l15 7h-165q-27 0 -45.5 -19t-18.5 -45zM229 482h9l6 6l255 256q3 3 5 4q-3 -1 -7 0.5t-5 4.5q1 -2 1 -6v-747q0 -4 -1 -6q1 3 5 4.5t7 0.5q-2 0 -5 3
l-255 256l-6 7h-9h-165q-9 0 -15 6t-6 15v175q0 9 6 15t15 6h165zM821 360.5q0 89.5 -59.5 153t-143.5 63.5q-9 0 -15 -6.5t-6 -15.5t6 -15t15 -6q66 0 113 -51t47 -123t-47 -122.5t-113 -50.5q-9 0 -15 -6.5t-6 -15.5t6 -15t15 -6q84 0 143.5 63.5t59.5 153zM1003 369
q0 117 -67.5 215t-179.5 147q-8 3 -16 0t-11.5 -11t-0.5 -16.5t11 -11.5q101 -44 161 -131.5t60 -191.5q0 -100 -54.5 -184t-147.5 -131q-8 -4 -10.5 -12t1.5 -16t12 -11t16 1q104 52 165 146.5t61 206.5z" />
    <glyph glyph-name="uniE648" unicode="&#xe648;" 
d="M128 -33q-32 0 -54.5 22.5t-22.5 55.5v700l-25 -26h870q32 0 54.5 -23t22.5 -55v-584q0 -10 7.5 -18t18 -8t18 8t7.5 18v584q0 54 -37.5 92t-90.5 38h-870q-11 0 -18.5 -7.5t-7.5 -18.5v-700q0 -54 37.5 -92t90.5 -38h755q11 0 18.5 7.5t7.5 18t-7.5 18.5t-18.5 8h-755z
M282 641q0 -11 7.5 -18.5t18 -7.5t18 7.5t7.5 18.5v195q0 10 -7.5 18t-18 8t-18 -8t-7.5 -18v-195zM717 654q0 -11 7.5 -18.5t18 -7.5t18 7.5t7.5 18.5v195q0 10 -7.5 18t-18 8t-18 -8t-7.5 -18v-195zM333 485q10 0 17.5 8t7.5 18.5t-7.5 18t-17.5 7.5h-141
q-11 0 -18.5 -7.5t-7.5 -18t7.5 -18.5t18.5 -8h141zM614 485q11 0 18.5 8t7.5 18.5t-7.5 18t-18.5 7.5h-140q-11 0 -18.5 -7.5t-7.5 -18t7.5 -18.5t18.5 -8h140zM870 485q11 0 18.5 8t7.5 18.5t-7.5 18t-18.5 7.5h-140q-11 0 -18.5 -7.5t-7.5 -18t7.5 -18.5t18.5 -8h140z
M333 330q10 0 17.5 7.5t7.5 18t-7.5 18.5t-17.5 8h-141q-11 0 -18.5 -8t-7.5 -18.5t7.5 -18t18.5 -7.5h141zM614 330q11 0 18.5 7.5t7.5 18t-7.5 18.5t-18.5 8h-140q-11 0 -18.5 -8t-7.5 -18.5t7.5 -18t18.5 -7.5h140zM870 330q11 0 18.5 7.5t7.5 18t-7.5 18.5t-18.5 8h-140
q-11 0 -18.5 -8t-7.5 -18.5t7.5 -18t18.5 -7.5h140zM333 174q10 0 17.5 7.5t7.5 18.5t-7.5 18.5t-17.5 7.5h-141q-11 0 -18.5 -7.5t-7.5 -18.5t7.5 -18.5t18.5 -7.5h141zM614 174q11 0 18.5 7.5t7.5 18.5t-7.5 18.5t-18.5 7.5h-140q-11 0 -18.5 -7.5t-7.5 -18.5t7.5 -18.5
t18.5 -7.5h140zM870 174q11 0 18.5 7.5t7.5 18.5t-7.5 18.5t-18.5 7.5h-140q-11 0 -18.5 -7.5t-7.5 -18.5t7.5 -18.5t18.5 -7.5h140z" />
    <glyph glyph-name="uniE649" unicode="&#xe649;" 
d="M472 777l-379 -399q-72 -75 -71.5 -181.5t74.5 -180.5l3 -4q74 -75 178.5 -75.5t178.5 73.5l500 499q59 59 60 143.5t-56 144.5l-19 -17l-18 -18l4 -4l19 17l18 18q-58 61 -140 60.5t-140 -62.5l-474 -508q-29 -31 -27.5 -73t32.5 -70l11 -11q31 -29 73 -27.5t70 32.5
l369 395q7 8 7 18.5t-8 17.5t-18.5 6.5t-17.5 -7.5l-369 -396q-14 -15 -35 -15.5t-36 13.5l-12 11q-15 14 -15.5 35t13.5 36l474 509q43 45 103 45.5t103 -44.5q11 -11 25 -7t18 16.5t-6 25.5l-4 4q-11 12 -25 7.5t-18 -17t6 -25.5q44 -45 43 -109t-46 -108l-500 -499
q-59 -59 -142.5 -58.5t-142.5 59.5l-3 4q-59 60 -60 145.5t57 146.5l380 399q7 7 7 17.5t-8 18t-18.5 7t-17.5 -7.5z" />
    <glyph glyph-name="uniE64A" unicode="&#xe64a;" 
d="M298 -21q-9 8 -9 21q0 15 11 26l360 358l-360 358q-11 11 -11 26q0 13 9 21q9 10 23 9t24 -11l379 -377q11 -10 11 -25v-3q-1 -14 -11 -24l-379 -377q-10 -10 -24 -11t-23 9z" />
    <glyph glyph-name="uniE64B" unicode="&#xe64b;" 
d="M726 789q9 -8 9 -21q0 -15 -11 -26l-360 -358l360 -358q11 -11 11 -26q0 -13 -9 -21q-9 -10 -23 -9t-24 11l-379 377q-11 10 -11 25v3q1 14 11 24l379 377q10 10 24 11t23 -9z" />
    <glyph glyph-name="uniE64C" unicode="&#xe64c;" 
d="M959 136v611q-299 -7 -638 -139q0 1 0 -47v-119v-138v-119q0 -51 0 -48q-27 8 -70 2.5t-76 -23.5q-62 -34 -91.5 -93t-9.5 -109.5t78.5 -62t120.5 21.5q55 36 83.5 86t28.5 106l1 498q263 93 509 109v-463q-68 14 -149 -29q-62 -34 -91.5 -93.5t-9.5 -109.5t78.5 -62
t120.5 22q115 62 115 199z" />
    <glyph glyph-name="uniE64D" unicode="&#xe64d;" 
d="M357 236l-211 -210l-82 82q-27 0 -45.5 -18.5t-18.5 -45.5v-192q0 -27 18.5 -45.5t45.5 -18.5h192q27 0 45.5 18.5t18.5 45.5l-82 82l210 211zM960 812h-192q-27 0 -45.5 -18.5t-18.5 -45.5l82 -82l-210 -211l91 -91l211 210l82 -82q26 0 45 19t19 45v192q0 27 -19 45.5
t-45 18.5zM960 108l-82 -82l-211 210l-91 -91l210 -211l-82 -82q0 -27 19 -45.5t45 -18.5h192q27 0 45.5 18.5t18.5 45.5v192q0 27 -18.5 45.5t-45.5 18.5zM320 748q0 27 -18.5 45.5t-45.5 18.5h-192q-27 0 -45.5 -18.5t-18.5 -45.5v-192q0 -27 18.5 -45.5t45.5 -18.5l82 82
l211 -210l91 91l-210 211z" />
    <glyph glyph-name="uniE64E" unicode="&#xe64e;" 
d="M960 468q0 23 -16.5 39.5t-39.5 16.5h-96q41 40 41 95q0 42 -26 72t-80 30q-36 0 -72.5 -17.5t-66.5 -46.5t-51 -54t-39 -53q-18 27 -40 53t-52 54.5t-67 46t-73 17.5q-54 0 -80 -30t-26 -72q0 -55 42 -95h-98q-23 0 -39.5 -16.5t-16.5 -39.5v-168h57v-365
q0 -23 16 -39.5t40 -16.5h671q23 0 39.5 16.5t16.5 39.5v365h56v168zM904 468v-112h-364v112h364zM743 665q50 0 50 -46q0 -44 -41 -69.5t-94 -25.5h-94q37 56 84.5 98.5t94.5 42.5zM232 620q0 45 50 45q47 0 96 -43t86 -98h-95q-53 0 -95 26t-42 70zM120 468h364v-112h-364
v112zM177 300h307v-365h-307v365zM848 -65h-308v365h308v-365z" />
    <glyph glyph-name="uniE64F" unicode="&#xe64f;" 
d="M0 -20h1024v-128h-1024v128zM128 236h128v-192h-128v192zM320 492h128v-448h-128v448zM512 300h128v-256h-128v256zM704 684h128v-640h-128v640z" />
    <glyph glyph-name="uniE650" unicode="&#xe650;" 
d="M508 696q70 0 133.5 -47.5t63.5 -93.5v-141q0 -50 -21 -112t-62 -94q-25 -20 -21 -51.5t32 -44.5l246 -116h2q2 -1 3.5 -2t4.5 -2.5t5 -4t4 -6t3 -9t1 -11.5v-55h-789v57q0 22 23 33l248 117q29 13 32.5 44t-20.5 51q-40 32 -63 94.5t-23 111.5v141q0 45 64 93t134 48z
M508 752q-61 0 -120.5 -29.5t-97 -76t-37.5 -91.5v-141q0 -58 27 -132.5t81 -117.5l-248 -117q-7 -3 -16 -8t-25 -19.5t-16 -28.5v-85q0 -23 16.5 -39.5t40.5 -16.5h789q24 0 40.5 16.5t16.5 39.5v85q0 14 -14 28.5t-28 20.5l-15 7l-245 117q53 41 78.5 114t25.5 136v141
q0 45 -37 91.5t-96.5 76t-119.5 29.5z" />
    <glyph glyph-name="uniE651" unicode="&#xe651;" 
d="M16 796zM574 556v240l372 -372l-372 -372v246q-90 2 -159 -14t-110.5 -44.5t-66.5 -69t-31.5 -85.5t-0.5 -94.5t22.5 -96t41.5 -90.5q-51 54 -86.5 117t-54 126.5t-19.5 127t15 120.5t53 106t91 84t132 54t173 17z" />
    <glyph glyph-name="uniE652" unicode="&#xe652;" 
d="M512 812q-138 0 -256 -69t-187 -187t-69 -256t69 -256t187 -187t256 -69t256 69t187 187t69 256t-69 256t-187 187t-256 69zM512 -127q-115 0 -213.5 57.5t-156 156t-57.5 213.5t57.5 213.5t156 156t213.5 57.5t213.5 -57.5t156 -156t57.5 -213.5t-57.5 -213.5t-156 -156
t-213.5 -57.5zM256 44l337 175l175 337l-337 -175zM512 347q19 0 33 -14t14 -33t-14 -33t-33 -14t-33 14t-14 33t14 33t33 14z" />
    <glyph glyph-name="uniE653" unicode="&#xe653;" 
d="M727 -150h-431q-20 0 -33.5 13.5t-13.5 32.5v802q0 19 13.5 32.5t33.5 13.5h431q20 0 33.5 -13.5t13.5 -32.5v-802q0 -19 -13.5 -32.5t-33.5 -13.5zM511.5 -104q12.5 0 21.5 9t9 22t-9 22t-21.5 9t-21.5 -9t-9 -22t9 -22t21.5 -9zM727 652h-15h-401h-15v-648h15h401h15
v648z" />
    <glyph glyph-name="uniE654" unicode="&#xe654;" 
d="M928 812h-704q-40 0 -68 -28t-28 -68v-64h-32q-40 0 -68 -28t-28 -68v-640q0 -53 37.5 -90.5t90.5 -37.5h768q53 0 90.5 37.5t37.5 90.5v800q0 40 -28 68t-68 28zM960 -84q0 -26 -19 -45t-45 -19h-768q-26 0 -45 19t-19 45v640q0 13 9.5 22.5t22.5 9.5h32v-640
q0 -13 9.5 -22.5t22.5 -9.5t22.5 9.5t9.5 22.5v768q0 13 9.5 22.5t22.5 9.5h704q13 0 22.5 -9.5t9.5 -22.5v-800zM624 396h256q7 0 11.5 4.5t4.5 11t-4.5 11.5t-11.5 5h-256q-7 0 -11.5 -5t-4.5 -11.5t4.5 -11t11.5 -4.5zM624 492h256q7 0 11.5 4.5t4.5 11t-4.5 11.5
t-11.5 5h-256q-7 0 -11.5 -5t-4.5 -11.5t4.5 -11t11.5 -4.5zM624 588h256q7 0 11.5 4.5t4.5 11t-4.5 11.5t-11.5 5h-256q-7 0 -11.5 -5t-4.5 -11.5t4.5 -11t11.5 -4.5zM528 -52h-256q-7 0 -11.5 -5t-4.5 -11.5t4.5 -11t11.5 -4.5h256q7 0 11.5 4.5t4.5 11t-4.5 11.5t-11.5 5
zM528 44h-256q-7 0 -11.5 -5t-4.5 -11.5t4.5 -11t11.5 -4.5h256q7 0 11.5 4.5t4.5 11t-4.5 11.5t-11.5 5zM528 140h-256q-7 0 -11.5 -5t-4.5 -11.5t4.5 -11t11.5 -4.5h256q7 0 11.5 4.5t4.5 11t-4.5 11.5t-11.5 5zM880 -52h-256q-7 0 -11.5 -5t-4.5 -11.5t4.5 -11t11.5 -4.5
h256q7 0 11.5 4.5t4.5 11t-4.5 11.5t-11.5 5zM880 44h-256q-7 0 -11.5 -5t-4.5 -11.5t4.5 -11t11.5 -4.5h256q7 0 11.5 4.5t4.5 11t-4.5 11.5t-11.5 5zM880 140h-256q-7 0 -11.5 -5t-4.5 -11.5t4.5 -11t11.5 -4.5h256q7 0 11.5 4.5t4.5 11t-4.5 11.5t-11.5 5zM880 332h-608
q-7 0 -11.5 -5t-4.5 -11.5t4.5 -11t11.5 -4.5h608q7 0 11.5 4.5t4.5 11t-4.5 11.5t-11.5 5zM880 236h-608q-7 0 -11.5 -5t-4.5 -11.5t4.5 -11t11.5 -4.5h608q7 0 11.5 4.5t4.5 11t-4.5 11.5t-11.5 5zM288 396h224q13 0 22.5 9.5t9.5 22.5v224q0 13 -9.5 22.5t-22.5 9.5h-224
q-13 0 -22.5 -9.5t-9.5 -22.5v-224q0 -13 9.5 -22.5t22.5 -9.5zM320 620h160v-160h-160v160z" />
    <glyph glyph-name="uniE655" unicode="&#xe655;" horiz-adv-x="1076" 
d="M813 -162q-6 0 -11 2l-267 142l-267 -142q-8 -5 -24 3q-13 8 -9 22l51 298l-215 211q-11 11 -7 23q3 12 18 15l298 43l135 271q5 12 20 12t20 -12l135 -271l298 -43q15 -3 18 -15q4 -16 -7 -23l-215 -211l52 -298q3 -14 -9 -22q-9 -5 -14 -5zM535 31q7 0 11 -2l238 -126
l-45 265q-3 10 7 20l193 188l-267 39q-7 0 -18 11l-119 240l-119 -240q-3 -11 -18 -11l-264 -39l193 -188q6 -7 6 -20l-45 -265l238 126q1 0 4 1t5 1z" />
    <glyph glyph-name="uniE656" unicode="&#xe656;" horiz-adv-x="1088" 
d="M0 428v238q0 29 21.5 50.5t51.5 22.5h238q30 0 67 -15t58 -37l409 -409q20 -21 20 -51t-20 -52l-281 -281q-22 -21 -52 -21q-31 0 -51 21l-409 409q-21 22 -36.5 58.5t-15.5 66.5zM110 556q0 -31 21.5 -51.5t52 -21.5t51 21.5t21.5 51.5t-21.5 52.5t-51 20.5t-52 -20.5
t-21.5 -52.5zM402 739h128q30 0 67 -15t58 -37l409 -409q21 -21 21 -51t-21 -52l-281 -281q-22 -21 -52 -21q-20 0 -33.5 8t-29.5 26l268 268q21 22 21 52t-21 51l-409 409q-21 22 -58 37t-67 15z" />
    <glyph glyph-name="uniE657" unicode="&#xe657;" 
d="M987 442q0 -12 -14 -27l-208 -202l49 -286q1 -4 1 -12q0 -12 -6 -20t-18 -8q-10 0 -22 7l-257 135l-257 -135q-12 -7 -22 -7q-12 0 -18 8t-6 20q0 4 1 12l49 286l-208 202q-14 15 -14 27q0 21 32 27l286 41l129 260q11 24 28 24t28 -24l129 -260l286 -41q32 -6 32 -27z
" />
    <glyph glyph-name="uniE658" unicode="&#xe658;" 
d="M599 226l-338 -338q-33 -33 -79.5 -33t-79.5 33t-33 80t33 80l337 337q-26 69 -10 144.5t71 131.5q47 46 109 65t124 8l9 -2v0q14 -4 16.5 -14t-7.5 -20l-106 -107q-29 -30 -29 -71.5t29 -70.5l17 -16q29 -30 70.5 -30t70.5 30l107 106q10 10 20 7.5t13 -16.5v1
q1 -2 2 -7q12 -63 -7 -125.5t-66 -109.5q-55 -55 -130 -71.5t-143 8.5zM181 -31q11 -11 26.5 -11t26.5 11t11 26.5t-11 26.5t-26.5 11t-26.5 -11t-11 -26.5t11 -26.5z" />
    <glyph glyph-name="uniE659" unicode="&#xe659;" 
d="M353 -20q-27 0 -45.5 -18.5t-18.5 -45.5t18.5 -45.5t45 -18.5t45.5 18.5t19 45.5t-19 45.5t-45 18.5zM801 -20q-27 0 -45.5 -18.5t-18.5 -45.5t18.5 -45.5t45 -18.5t45.5 18.5t19 45.5t-19 45.5t-45 18.5zM864 12h-520q-34 0 -61 24t-31 59l-54 382l-31 179
q-2 11 -11 19.5t-19 8.5h-41q-13 0 -22.5 9.5t-9.5 22.5t9.5 22.5t22.5 9.5h41q35 0 62 -24t31 -59l31 -178l54 -384q2 -11 10.5 -19t18.5 -8h520q13 0 22.5 -9.5t9.5 -22.5t-9.5 -22.5t-22.5 -9.5zM384 140q-12 0 -21.5 8.5t-10.5 21.5t8 23t22 11l434 32q12 0 21 8t10 19
l51 288q2 18 -9 30q-6 7 -15 7h-554q-13 0 -22.5 9.5t-9.5 22.5t9.5 22.5t22.5 9.5h554q38 0 63 -29q30 -33 24 -81l-51 -289q-4 -33 -30.5 -57t-61.5 -24l-431 -32h-3z" />
    <glyph glyph-name="uniE65A" unicode="&#xe65a;" 
d="M512 672v140l-186 -186l186 -186v139q115 0 197 -82t82 -197q0 -65 -32 -130l70 -70q55 104 55 200q0 101 -50 186.5t-135.5 135.5t-186.5 50zM512 21q-115 0 -197 82t-82 197q0 33 8.5 67t23.5 63l-70 70q-55 -104 -55 -200q0 -101 50 -186.5t135.5 -135.5t186.5 -50
v-140l186 186l-186 186v-139z" />
    <glyph glyph-name="uniE65B" unicode="&#xe65b;" 
d="M687 767q21 25 55.5 28.5t59.5 -19.5q101 -88 180 -179q23 -25 19.5 -59t-27.5 -56q-45 -48 -133.5 -135t-126.5 -127q-10 9 -29.5 28t-29.5 29q22 24 111.5 111t133.5 139q5 11 5.5 19t-5.5 18t-12.5 17t-15 16t-12.5 15q-12 9 -34.5 34.5t-43 39.5t-44.5 13
q-53 -44 -141.5 -134t-114.5 -115q-9 8 -31 30.5t-26 26.5q29 28 119.5 120t142.5 140zM310 162q51 50 174.5 174t190.5 190q45 -47 56 -58q-193 -193 -364 -363l-29 29zM49 130q43 46 126 127.5t114 114.5q7 -8 28.5 -29t29.5 -28q-28 -32 -77.5 -77.5t-90 -88t-64.5 -85.5
q44 -82 166 -160q39 40 118.5 119t119.5 119l29 -28l29 -30q-32 -31 -113.5 -113.5t-127.5 -125.5q-23 -26 -58.5 -29t-59.5 21q-104 93 -179 178q-22 25 -18.5 59t28.5 56z" />
    <glyph glyph-name="uniE65C" unicode="&#xe65c;" 
d="M925 -53q-61 -1 -368 -1h-12q-22 -1 -37 -16.5t-16 -37.5v-31v-31h505v68q-8 27 -25 38t-47 11zM958 -131h-427v3q-1 12 -0.5 16.5t3.5 10t10 7.5t20 2q122 -1 367 -1q17 0 22 -5t5 -23v-10zM564 325q24 -25 28 -29q9 -9 29 -24q0 -3 -1 -19.5t0 -18.5q6 -29 32.5 -39
t52.5 6q107 68 197 125q13 7 18 12q25 20 20 52t-34 41q-12 4 -17 10t-8 18q-11 50 -52 116q-52 81 -104 117q10 24 1 44q-11 25 -35 32t-47 -7q-71 -44 -210 -133q-4 -3 -8 -5q-24 -21 -18 -52t36 -42q3 -1 8.5 -2t7.5 -2q11 -36 25 -79q-2 -1 -9 -5q-55 -33 -164 -98
t-164 -97t-82 -50q-31 -21 -38 -51.5t11 -61.5q29 -51 86 -42q23 3 52 23q166 113 377 255q7 4 10 6zM880 396q8 3 15 -2t7 -17l-4 -5q-3 -4 -6 -7q-10 -6 -77 -48q-21 -13 -63 -39.5t-63 -39.5l-9 -6q-12 -5 -20 7q-8 11 3 20q6 5 10 7q33 21 98 61.5t97 61.5q8 5 12 7z
M749 619q61 -71 89 -149q2 -5 11 -39q1 -6 -5 -11q-138 -87 -185 -117q-6 -4 -14 1q-32 21 -63 63q-50 68 -71 127q0 1 -11 40q1 1 2.5 3t2.5 3.5t3 2.5q30 19 91.5 58t92.5 58q7 5 13 -1q4 -3 14 -11t17 -14.5t13 -13.5zM484 575l-8 -5q-19 -11 -27 3q-9 14 10 25
q34 22 101.5 64.5t101.5 63.5l7 4q9 4 16 -2t6 -16q-7 -10 -9 -11q-18 -13 -55 -36q-27 -17 -78 -49t-65 -41zM531 351q-30 -21 -165 -112.5t-208 -140.5q-15 -10 -33 -17q-32 -12 -52 23q-18 31 8 53q11 11 23 17q180 108 396 235q1 0 3 1t3 2q6 -9 17.5 -27.5t17.5 -28.5
q-2 -1 -3.5 -1.5t-3.5 -2t-3 -1.5z" />
    <glyph glyph-name="uniE65D" unicode="&#xe65d;" 
d="M512 672q7 0 11.5 -4.5t4.5 -11.5t-4.5 -11.5t-11.5 -4.5q-128 0 -224 -57.5t-96 -134.5q0 -7 -4.5 -11.5t-11.5 -4.5t-11.5 4.5t-4.5 11.5q0 91 104.5 157.5t247.5 66.5zM512 832q-139 0 -257 -51.5t-186.5 -140t-68.5 -192.5q0 -97 60.5 -181t163.5 -137v-1v-1
q0 -16 -4 -33.5t-13 -37t-14 -29t-17.5 -30.5t-13.5 -22q-2 -5 -2 -11q0 -12 8.5 -20.5t20.5 -8.5h3q3 0 4 0.5t1 -0.5q46 8 95.5 37.5t77.5 54.5t43 43q50 -7 99 -7q139 0 257 51.5t186.5 140t68.5 192.5t-68.5 192.5t-186.5 140t-257 51.5zM512 128q-44 0 -89 7h-10
q-30 0 -49 -23q-13 -16 -40.5 -39.5t-58.5 -41.5q22 50 23 94v5q0 40 -35 57q-89 46 -139 115t-50 146q0 87 60 160.5t163.5 116.5t224.5 43q185 0 316.5 -94t131.5 -226t-131.5 -226t-316.5 -94z" />
    <glyph glyph-name="uniE65E" unicode="&#xe65e;" 
d="M1008 485q0 -60 -23.5 -115.5t-65.5 -97.5l-399 -396l-56 54l400 396q66 64 66 159q0 79 -52.5 131t-131.5 52q-91 0 -160 -67l-440 -436q-52 -52 -52 -118q0 -51 33 -83.5t83 -32.5q67 0 120 53l336 331q47 49 47 87q0 18 -14.5 29t-33.5 11q-43 0 -77 -36l-303 -299
l-54 54l302 299q59 59 132 59q52 0 89 -33t37 -84q0 -69 -70 -141l-336 -332q-75 -75 -175 -75q-83 0 -138.5 55t-55.5 138q0 98 75 173l439 436q93 90 216 90q111 0 186.5 -75t75.5 -186z" />
    <glyph glyph-name="uniE65F" unicode="&#xe65f;" 
d="M33 811v-1022v1022zM65 811v-1022v1022zM97 811v-1022v1022zM129 811v-1022v1022zM161 811v-1022v1022zM193 811v-1022v1022zM225 811v-1022v1022zM256 811v-1022v1022zM288 811v-1022v1022zM320 811v-1022v1022zM352 811v-1022v1022zM384 811v-1022v1022zM416 811v-1022
v1022zM448 811v-1022v1022zM480 811v-1022v1022zM512 811v-1022v1022zM544 811v-1022v1022zM576 811v-1022v1022zM608 811v-1022v1022zM640 811v-1022v1022zM672 811v-1022v1022zM704 811v-1022v1022zM736 811v-1022v1022zM768 811v-1022v1022zM799 811v-1022v1022zM831 811
v-1022v1022zM863 811v-1022v1022zM895 811v-1022v1022zM927 811v-1022v1022zM959 811v-1022v1022zM991 811v-1022v1022zM1 779h1022h-1022zM1 747h1022h-1022zM1 715h1022h-1022zM1 683h1022h-1022zM1 651h1022h-1022zM1 619h1022h-1022zM1 587h1022h-1022zM1 556h1022
h-1022zM1 524h1022h-1022zM1 492h1022h-1022zM1 460h1022h-1022zM1 428h1022h-1022zM1 396h1022h-1022zM1 364h1022h-1022zM1 332h1022h-1022zM1 300h1022h-1022zM1 268h1022h-1022zM1 236h1022h-1022zM1 204h1022h-1022zM1 172h1022h-1022zM1 140h1022h-1022zM1 108h1022
h-1022zM1 76h1022h-1022zM1 44h1022h-1022zM1 13h1022h-1022zM1 -19h1022h-1022zM1 -51h1022h-1022zM1 -83h1022h-1022zM1 -115h1022h-1022zM1 -147h1022h-1022zM1 -179h1022h-1022zM384 225l12 7q8 5 31 16.5t46.5 21.5t55.5 20.5t60.5 15.5t59 4t53.5 -11q32 48 70 115
q-49 13 -114.5 13.5t-105.5 -4.5l-40 -6q2 2 6.5 4.5t18.5 9.5t28.5 14t35.5 16t41.5 16.5t44.5 13.5t45.5 9t44 2t41.5 -7q62 111 68 122q-48 3 -88.5 1t-67.5 -6l-26 -3q13 8 35.5 20t82.5 35t108 28q56 91 93 119q-116 0 -226 -37t-199 -98.5t-171.5 -146.5t-146 -176
t-119 -194t-93.5 -192.5t-67 -177.5h64l191 319q3 -2 8.5 -6t27 -11.5t48 -10t72.5 3.5t100 24q62 21 135 114q-50 13 -115.5 13.5t-106.5 -4.5z" />
    <glyph glyph-name="uniE660" unicode="&#xe660;" 
d="M762 -128q25 46 42 94t23.5 99t-0.5 97.5t-32.5 88t-68.5 71t-114 46t-164 14.5v-254l-384 384l384 384v-248q98 2 178.5 -17.5t136 -55.5t94 -86.5t55 -109.5t15.5 -124.5t-20 -131t-56 -130.5t-89 -121z" />
    <glyph glyph-name="uniE661" unicode="&#xe661;" 
d="M0 684h128v-640h-128v640zM192 684h64v-640h-64v640zM320 684h64v-640h-64v640zM512 684h64v-640h-64v640zM768 684h64v-640h-64v640zM960 684h64v-640h-64v640zM640 684h32v-640h-32v640zM448 684h32v-640h-32v640zM864 684h32v-640h-32v640zM0 -20h64v-64h-64v64z
M192 -20h64v-64h-64v64zM320 -20h64v-64h-64v64zM640 -20h64v-64h-64v64zM960 -20h64v-64h-64v64zM768 -20h128v-64h-128v64zM448 -20h128v-64h-128v64z" />
    <glyph glyph-name="uniE662" unicode="&#xe662;" 
d="M364 90l41 58l-45 45l-58 -41q-16 9 -34 14l-12 70h-64l-12 -70q-18 -5 -34 -14l-58 41l-45 -45l41 -58q-9 -16 -14 -34l-70 -12v-64l70 -12q5 -18 14 -34l-41 -58l45 -45l58 41q16 -9 34 -14l12 -70h64l12 70q18 5 34 14l58 -41l45 45l-41 58q9 16 14 34l70 12v64
l-70 12q-5 18 -14 34zM224 -52q-27 0 -45.5 18.5t-18.5 45.5t18.5 45.5t45.5 18.5t45.5 -18.5t18.5 -45.5t-18.5 -45.5t-45.5 -18.5zM1024 428v64l-67 12q-2 13 -5 24l57 37l-24 59l-67 -14q-6 10 -13 20l39 56l-46 46l-56 -39q-10 7 -20 13l14 67l-59 24l-37 -57
q-12 3 -24 5l-12 67h-64l-12 -67q-13 -2 -24 -5l-37 57l-59 -24l14 -67q-10 -6 -20 -13l-56 39l-46 -46l39 -56q-7 -10 -13 -20l-67 14l-24 -59l57 -37q-3 -12 -5 -24l-67 -12v-64l67 -12q2 -13 5 -24l-57 -37l24 -59l67 14q6 -10 13 -20l-39 -56l46 -46l56 39q10 -7 20 -13
l-14 -67l59 -24l37 57q12 -3 24 -5l12 -67h64l12 67q13 2 24 5l37 -57l59 24l-14 67q10 6 20 13l56 -39l46 46l-39 56q7 10 13 20l67 -14l24 59l-57 37q3 12 5 24zM672 321q-58 0 -98.5 40.5t-40.5 98.5t40.5 98.5t98.5 40.5t98.5 -40.5t40.5 -98.5t-40.5 -98.5t-98.5 -40.5
z" />
    <glyph glyph-name="uniE663" unicode="&#xe663;" 
d="M1024 300q0 139 -68.5 257t-186.5 186.5t-257 68.5t-257 -68.5t-186.5 -186.5t-68.5 -257q0 -163 92.5 -294t241.5 -186l-14 -32h384l-14 32q149 55 241.5 186t92.5 294zM487 177q-18 8 -28.5 24t-10.5 35q0 27 18.5 45.5t45.5 18.5t45.5 -18.5t18.5 -45.5
q0 -20 -10.5 -35.5t-28.5 -23.5l-25 59zM538 175q44 9 73 44t29 81q0 53 -37.5 90.5t-90.5 37.5t-90.5 -37.5t-37.5 -90.5q0 -46 29 -81t73 -44l-75 -174q-69 29 -112 93t-43 142q0 107 75.5 187.5t180.5 80.5t180.5 -80.5t75.5 -187.5q0 -78 -43 -141.5t-112 -93.5z
M688 -176l-73 173q96 32 156.5 115.5t60.5 187.5q0 133 -93.5 226.5t-226.5 93.5t-226.5 -93.5t-93.5 -226.5q0 -104 60.5 -187.5t156.5 -115.5l-73 -173q-122 52 -197 163.5t-75 248.5q0 91 35.5 176t95.5 147t143 99.5t174 37.5t174 -37.5t143 -99.5t95.5 -147t35.5 -176
q0 -137 -75 -248.5t-197 -163.5z" />
    <glyph glyph-name="uniE664" unicode="&#xe664;" 
d="M1024 530l-90 90l-179 -179l-102 102l179 179l-90 90l-179 -179l-115 115l-87 -87l512 -512l87 87l-115 115zM274.5 62.5q47.5 -47.5 105 -65.5t110.5 -12t111 31t103 55t90 67l-444 444q-37 -45 -67 -90t-55 -103t-31 -111t12 -110.5t65.5 -105zM192 108l128 -128
l-192 -192l-128 128z" />
    <glyph glyph-name="uniE665" unicode="&#xe665;" horiz-adv-x="1047" 
d="M250 607h23v-455h-23v455zM523 539h23v-250h-23v250zM796 653h23v-387h-23v387zM847 4l-122 -216l-138 216q-18 33 -18 70q0 61 43.5 103.5t104.5 42.5t104.5 -42.5t43.5 -103.5q0 -37 -18 -70zM717 144q-29 0 -49.5 -20.5t-20.5 -49.5t20.5 -49.5t49.5 -20.5t49 20.5
t20 49.5t-20 49.5t-49 20.5zM1015 -41q-41 12 -91 33q-14 6 -14 22q0 10 6.5 16t15.5 6q5 0 24 -8q6 -3 17.5 -7.5t19.5 -7.5l8 -3v620l-190 110l-337 -128l-226 126l-202 -91v-666l229 103q208 -105 264 -133q14 -8 12 -26q-2 -19 -22 -20q-11 0 -23 6q-25 13 -84 43
t-106 54l-46 24q-203 -97 -224 -107q-9 -5 -17 -7.5t-14.5 -3t-10.5 2t-4 8.5v750l252 115l232 -126l333 127l230 -138v-660q1 -30 -17 -35q-6 -2 -15 1z" />
    <glyph glyph-name="uniE666" unicode="&#xe666;" 
d="M769 364v135q-3 104 -77.5 176.5t-178.5 72.5t-178.5 -72.5t-77.5 -175.5v-136h-1q-27 0 -45.5 -18.5t-18.5 -45.5v-384q0 -27 18.5 -45.5t45.5 -18.5h512q27 0 45.5 18.5t18.5 45.5v384q0 26 -18.5 45t-44.5 19zM321 497q2 78 58 132.5t134 54.5t134 -54.5t58 -132.5
v-133h-384v133zM768 -52q0 -13 -9.5 -22.5t-22.5 -9.5h-448q-13 0 -22.5 9.5t-9.5 22.5v320q0 13 9.5 22.5t22.5 9.5h448q13 0 22.5 -9.5t9.5 -22.5v-320zM544 122v52q0 13 -9.5 22.5t-22.5 9.5t-22.5 -9.5t-9.5 -22.5v-52q-28 -18 -28 -51q0 -25 17.5 -42.5t42.5 -17.5
t42.5 17.5t17.5 42.5q0 33 -28 51z" />
    <glyph glyph-name="uniE667" unicode="&#xe667;" 
d="M317 496q21 21 21 51t-21.5 52t-51.5 22t-52 -22q-21 -21 -21 -52q0 -30 21 -51.5t52 -21.5q30 0 52 22zM948 219q0 -31 -22 -52l-280 -281q-22 -21 -52 -21t-51 21l-409 409q-22 22 -37 58q-15 37 -15 67v237q0 30 22 51.5t52 21.5h237q30 0 67 -15q36 -14 58 -37
l408 -407q22 -22 22 -52z" />
    <glyph glyph-name="uniE668" unicode="&#xe668;" 
d="M918 255l-369 -367q-34 -34 -82 -34t-82 34l-288 286q-34 34 -34 81.5t34 81.5l370 368q5 5 14 15t12 12.5t9.5 7.5t12.5 6t15 1h375q23 0 38.5 -15.5t15.5 -37.5v-374q0 -7 -1.5 -13.5t-3 -10.5t-7 -10.5t-7.5 -9t-10.5 -10.5t-11.5 -11zM146 216l282 -280
q16 -16 39.5 -16t40.5 16l40 40l-361 361l-41 -41q-16 -16 -16 -39.5t16 -40.5zM897 659q0 11 -7.5 19t-18.5 8h-315q-18 0 -48 -30l-281 -279l361 -361l282 280q27 28 27 50v313zM611 398q-34 34 -34 82t34 82t82 34t82 -34t34 -82t-34 -82t-82 -34t-82 34zM734 521
q-17 17 -41 17t-41 -17t-17 -41t17 -41t41 -17t41 17t17 41t-17 41z" />
    <glyph glyph-name="uniE669" unicode="&#xe669;" 
d="M806 373v154q-4 119 -89 202t-204 83q-120 0 -205 -84t-87 -203v-1q0 -15 10.5 -26t25.5 -11t26 11t11 26v1q2 89 66 151.5t153.5 62.5t153 -62.5t66.5 -151.5v-152h-514q-30 0 -51.5 -21.5t-21.5 -51.5v-439q0 -30 21.5 -51.5t51.5 -21.5h585q31 0 52.5 21.5t21.5 51.5
v439q0 30 -21 51.5t-51 21.5zM805 -102q0 -15 -11 -26t-26 -11h-512q-15 0 -26 11t-11 26v365q0 16 11 26.5t26 10.5h512q15 0 26 -10.5t11 -26.5v-365zM549 96v60q0 15 -11 26t-26 11t-26 -11t-11 -26v-60q-32 -20 -32 -58q0 -28 20.5 -48t48.5 -20t48.5 20t20.5 48
q0 38 -32 58z" />
    <glyph glyph-name="uniE66A" unicode="&#xe66a;" 
d="M878 812h-732q-30 0 -51.5 -21.5t-21.5 -51.5v-878q0 -30 21.5 -51.5t51.5 -21.5h732q30 0 51.5 21.5t21.5 51.5v878q0 30 -21.5 51.5t-51.5 21.5zM512 -175q-15 0 -26 10.5t-11 25.5t11 26t26 11t26 -11t11 -26t-11 -25.5t-26 -10.5zM878 -43q0 -9 -7 -16t-16 -7h-686
q-10 0 -16.5 7t-6.5 16v759q0 9 6.5 16t16.5 7h686q9 0 16 -6.5t7 -16.5v-759z" />
    <glyph glyph-name="uniE66B" unicode="&#xe66b;" 
d="M896 710h-819q-32 0 -54.5 -22.5t-22.5 -54.5v-512q0 -32 22.5 -54.5t54.5 -22.5h384v-102h-179q-11 0 -18.5 -7.5t-7.5 -18.5t7.5 -18.5t18.5 -7.5h409q11 0 18.5 7.5t7.5 18.5t-7.5 18.5t-18.5 7.5h-179v102h384q32 0 54.5 22.5t22.5 54.5v512q0 32 -22.5 54.5
t-54.5 22.5zM922 121q0 -11 -7.5 -18.5t-18.5 -7.5h-819q-11 0 -18.5 7.5t-7.5 18.5v512q0 10 7.5 17.5t18.5 7.5h819q11 0 18.5 -7.5t7.5 -17.5v-512z" />
    <glyph glyph-name="uniE66C" unicode="&#xe66c;" 
d="M1017 160l-256 320q-10 12 -25 12h-448q-15 0 -25 -12l-256 -320q-7 -9 -7 -20v-288q0 -27 18.5 -45.5t45.5 -18.5h896q27 0 45.5 18.5t18.5 45.5v288q0 11 -7 20zM960 108h-224l-128 -128h-192l-128 128h-224v21l239 299h418l239 -299v-21zM736 300h-448
q-13 0 -22.5 9.5t-9.5 22.5t9.5 22.5t22.5 9.5h448q13 0 22.5 -9.5t9.5 -22.5t-9.5 -22.5t-22.5 -9.5zM800 172h-576q-13 0 -22.5 9.5t-9.5 22.5t9.5 22.5t22.5 9.5h576q13 0 22.5 -9.5t9.5 -22.5t-9.5 -22.5t-22.5 -9.5z" />
    <glyph glyph-name="uniE66D" unicode="&#xe66d;" 
d="M563 285l64 35q9 -88 -50.5 -153.5t-147.5 -65.5q-83 0 -141 58t-58 141t58 141t141 58q66 0 118 -39l-64 -36q-26 11 -54 11q-56 0 -96 -39.5t-40 -95.5t40 -95.5t96 -39.5q52 0 90 34.5t44 85.5zM688 354q14 -65 -5 -129t-67 -112q-77 -78 -187 -78t-187.5 77.5
t-77.5 187.5t77.5 187.5t187.5 77.5q103 0 179 -70q28 18 42 49q-94 85 -221 85q-90 0 -165.5 -44t-119.5 -120t-44 -165t44 -165t119.5 -120t165.5 -44q75 0 142.5 33t111.5 86.5t63.5 126t4.5 147.5q-32 4 -63 -10zM824 521l27 103l-149 -83q-20 -63 -77 -95l-155 -86
q-19 13 -41 13q-29 0 -49.5 -21t-20.5 -50t20.5 -49.5t49.5 -20.5q30 0 50.5 21.5t19.5 52.5l155 87q58 32 122 17l148 83z" />
    <glyph glyph-name="uniE66E" unicode="&#xe66e;" 
d="M979 140l-422 -224q-423 83 -461 96q-18 6 -27 19.5t-8 25t3 19.5q0 11 16 27t29 11q8 -2 122 -28t223 -50l109 -24l442 237l2 2q1 1 3.5 5.5t4 9t1 10.5t-4.5 11q-3 12 -11 15t-14 0l-7 -2l-422 -218q-442 96 -467 103q-32 8 -32 57q0 19 22 31.5t42 7.5
q11 -3 121.5 -28.5t214.5 -50.5l105 -24l442 237q1 1 2 2.5t3.5 5.5t4 8.5t1 10.5t-4.5 12q-5 8 -15 9.5t-16 -0.5l-7 -3l-416 -211q-435 96 -461 102q-22 5 -30 23t-2 35t25 28.5t45 3.5q12 -2 120.5 -25t206 -42t102.5 -16q13 6 442 236q3 15 -3.5 23t-14.5 9h-8
q-346 58 -416 71q-31 5 -52 5t-26 -2l-5 -3l-384 -199q-2 0 -6 -1t-15.5 -5.5t-21.5 -12t-21.5 -23t-18.5 -34.5q-10 -21 -6 -40t12.5 -31.5t17 -23.5t8.5 -14q0 -2 -8.5 -7.5t-18 -20t-12.5 -36.5q-1 -22 2.5 -39.5t10.5 -28t13.5 -18t10 -11.5t2.5 -6q0 -1 -7 -4
t-16.5 -17t-15.5 -43q-3 -23 1.5 -43.5t13.5 -33t19 -21.5t16.5 -13t7.5 -4l499 -115l442 250q1 0 2 1.5t3.5 5.5t4 8t1 8.5t-4.5 8.5q-5 8 -13 9.5t-14 -0.5zM518 646l269 -52l-128 -70l-256 58z" />
    <glyph glyph-name="uniE66F" unicode="&#xe66f;" 
d="M589 402q10 0 17.5 7.5t7.5 18.5v205q0 32 -22.5 54.5t-53.5 22.5h-461q-32 0 -54.5 -22.5t-22.5 -54.5v-615q0 -28 18 -55.5t45 -38.5l264 -114q14 -6 27 -6q17 0 30 9q26 17 26 52v77h128q31 0 53.5 22.5t22.5 53.5v205q0 11 -7.5 18.5t-18 7.5t-18 -7.5t-7.5 -18.5
v-205q0 -10 -7.5 -17.5t-17.5 -7.5h-128v486q0 29 -18.5 56.5t-44.5 38.5l-197 84h388q10 0 17.5 -7.5t7.5 -17.5v-205q0 -11 7.5 -18.5t18.5 -7.5zM327 527q12 -5 21.5 -19.5t9.5 -28.5v-614q0 -8 -2 -9.5t-9 1.5l-264 114q-13 5 -22.5 19.5t-9.5 27.5v615q0 6 3 11z
M940 344l-154 153q-7 8 -18 8t-18.5 -7.5t-7.5 -18t8 -18.5l110 -110h-322q-11 0 -18.5 -7.5t-7.5 -18t7.5 -18t18.5 -7.5h322l-110 -110q-8 -7 -8 -18t7.5 -18t18.5 -7t18 7l154 154q7 7 7 17.5t-7 18.5z" />
    <glyph glyph-name="uniE670" unicode="&#xe670;" horiz-adv-x="1112" 
d="M960 -38v-2q0 -31 12.5 -75.5t24.5 -65.5q2 -4 2 -9q0 -9 -6.5 -15.5t-15.5 -6.5h-3h-3q-50 8 -107.5 51.5t-80.5 71.5q-20 -3 -43 -3h-10h-10q-104 0 -187.5 36.5t-136.5 100.5l97 2h3q88 -70 224 -70q39 1 53 3l37 5q2 -4 8 -12.5t29.5 -32.5t53.5 -46q-3 10 -5 38.5
t-3 49.5t-1 24l34 17q61 31 88.5 72.5t27.5 97.5q0 48 -16.5 81.5t-59.5 63.5q14 43 17 75q68 -39 98.5 -93t30.5 -127q0 -153 -152 -231zM461 118h-12h-11q-27 0 -50 4q-22 -26 -101.5 -77.5t-137.5 -60.5h-1h-2h-4q-11 0 -18.5 7.5t-7.5 17.5q0 5 2 10q59 102 59 150v1v1
q-86 44 -131.5 127t-45.5 176q0 92 60.5 170t165 123t228 45t227 -45t163 -123t59.5 -170q1 -104 -57 -185.5t-159 -126t-226 -44.5zM453.5 743q-104.5 0 -193 -36t-140 -98t-51.5 -135t36 -139.5t104 -101.5l38 -20l-4 -42q1 -22 -22 -88q27 16 56 39.5t38 33.5l44 37
l39 -3q15 -2 31 -3t25 0h9q160 0 265 81.5t106 205.5q0 73 -50.5 135t-138 98t-192 36z" />
    <glyph glyph-name="uniE671" unicode="&#xe671;" 
d="M895 493h-253v193h-513v-710v-59h766v59v517zM577 -18h-383v639h383v-639zM834 -18h-192v447h192v-447zM317 560h-63v-63h63v63zM445 560h-64v-63h64v63zM317 433h-63v-64h63v64zM445 433h-64v-64h64v64zM317 305h-63v-63h63v63zM445 305h-64v-63h64v63zM763 369h-64v-64
h64v64zM763 242h-64v-64h64v64z" />
    <glyph glyph-name="uniE672" unicode="&#xe672;" 
d="M914 739h-256q-44 0 -82 -19.5t-64 -53.5q-26 34 -64 53.5t-82 19.5h-256q-31 0 -52 -21.5t-21 -51.5v-677q0 -30 21 -51.5t52 -21.5h269q56 -55 133 -55t133 55h269q31 0 52 21.5t21 51.5v677q0 30 -21 51.5t-52 21.5zM937 4q0 -14 -10.5 -24.5t-24.5 -10.5h-266
q-18 0 -29 -13q-38 -45 -95 -45t-95 45q-11 13 -29 13h-266q-14 0 -24.5 10.5t-10.5 24.5v650q0 14 10.5 24.5t24.5 10.5h235q50 0 89.5 -35t39.5 -82v-330q0 -21 13 -29.5t26 0t13 29.5v330q0 47 39.5 82t89.5 35h235q14 0 24.5 -10.5t10.5 -24.5v-650z" />
    <glyph glyph-name="uniE673" unicode="&#xe673;" 
d="M874.5 662.5q72.5 -72.5 111 -166t38.5 -196.5t-38.5 -196.5t-111 -166t-166 -111t-196.5 -38.5t-196.5 38.5t-166 111t-111 166t-38.5 196.5t38.5 196.5t111 166t166 111t196.5 38.5t196.5 -38.5t166 -111zM829 -17q95 96 122 227q-25 -36 -34 17q-3 25 -16.5 35t-29 9
t-37 -0.5t-34.5 8.5q-13 -9 -31 -6t-37 7.5t-33.5 6.5t-22 -9.5t-2.5 -38.5q6 -10 18.5 -11.5t22 1.5t26.5 9q13 5 19 6t11 -0.5t1 -11.5t-15 -28q-5 -10 -26.5 -46.5t-35.5 -62.5t-30.5 -61.5t-23.5 -65t-4 -50.5q1 -39 -16.5 -50t-44.5 2t-49 28.5t-41 32.5
q-8 22 -13.5 62t-9.5 71t-17.5 61t-37.5 42q-27 2 -44 3.5t-38.5 7t-36 15t-28 27t-21.5 41.5q-14 47 11 100t72 63q30 16 49.5 15t41 -14.5t37.5 -29t39.5 -29t47.5 -14.5q11 12 37.5 23t47 22t23.5 25q-13 2 -15 7t5 11t15 13t13 13.5t0 13.5t-24 12q-33 -4 -49 -28.5
t1 -50.5q-23 -5 -42 5t-30 27t-26 32.5t-29.5 20.5t-40.5 -7q-1 -36 -38 -38q-28 -1 -36 11q-5 9 13 15q7 2 16 3q16 7 -9 31q-14 13 -7 14q3 0 10 -1q27 2 60 20q23 13 12 23q13 7 23 3.5t22 -10t21.5 -12t21.5 -1t23 20.5q19 33 0 42t-47 -10q-14 15 15 44t68 46
q25 11 42 9q19 -22 44 -22t27 25q-91 44 -193 44q-149 0 -267 -88q37 -18 12 -37q-13 -38 -53.5 -71.5t-79.5 -27.5q-43 -75 -55 -160q21 -7 34.5 -19t14.5 -21.5t-3 -15.5q-33 -29 -45 -81q23 -142 125 -244q64 -63 145.5 -97t171.5 -34t171.5 34t145.5 97z" />
    <glyph glyph-name="uniE674" unicode="&#xe674;" 
d="M320 748h-256v-256h256v256zM384 812v-384h-384v384h384zM128 684h128v-128h-128v128zM960 748h-256v-256h256v256zM1024 812v-384h-384v384h384zM768 684h128v-128h-128v128zM320 108h-256v-256h256v256zM384 172v-384h-384v384h384zM128 44h128v-128h-128v128zM448 812
h64v-64h-64v64zM512 748h64v-64h-64v64zM448 684h64v-64h-64v64zM512 620h64v-64h-64v64zM448 556h64v-64h-64v64zM512 492h64v-64h-64v64zM448 428h64v-64h-64v64zM448 300h64v-64h-64v64zM512 236h64v-64h-64v64zM448 172h64v-64h-64v64zM512 108h64v-64h-64v64zM448 44
h64v-64h-64v64zM512 -20h64v-64h-64v64zM448 -84h64v-64h-64v64zM512 -148h64v-64h-64v64zM960 300h64v-64h-64v64zM64 300h64v-64h-64v64zM128 364h64v-64h-64v64zM0 364h64v-64h-64v64zM256 364h64v-64h-64v64zM320 300h64v-64h-64v64zM384 364h64v-64h-64v64zM576 300h64
v-64h-64v64zM640 364h64v-64h-64v64zM704 300h64v-64h-64v64zM768 364h64v-64h-64v64zM832 300h64v-64h-64v64zM896 364h64v-64h-64v64zM960 172h64v-64h-64v64zM576 172h64v-64h-64v64zM640 236h64v-64h-64v64zM704 172h64v-64h-64v64zM832 172h64v-64h-64v64zM896 236h64
v-64h-64v64zM960 44h64v-64h-64v64zM576 44h64v-64h-64v64zM640 108h64v-64h-64v64zM768 108h64v-64h-64v64zM832 44h64v-64h-64v64zM896 108h64v-64h-64v64zM960 -84h64v-64h-64v64zM640 -20h64v-64h-64v64zM704 -84h64v-64h-64v64zM768 -20h64v-64h-64v64zM832 -84h64v-64
h-64v64zM640 -148h64v-64h-64v64zM768 -148h64v-64h-64v64zM896 -148h64v-64h-64v64z" />
    <glyph glyph-name="uniE675" unicode="&#xe675;" 
d="M922 464l-271 271q-15 15 -36.5 15t-36.5 -15l-15 -15q-25 -25 -25 -62v-51q0 -15 -11 -25l-143 -143q-11 -11 -26 -11h-51q-36 0 -62 -26l-15 -15q-15 -15 -15 -36t15 -36l80 -80l-254 -329q-5 -8 -4.5 -17.5t7.5 -16.5t18 -7q8 0 15 5l330 254l79 -80q15 -15 36.5 -15
t36.5 15l15 15q25 26 25 62v51q0 15 11 26l143 143q11 10 26 10h51q36 0 62 26l15 15q15 15 15 36t-15 36zM217 30l129 169l39 -39zM870 413q-10 -11 -25 -11h-51q-37 0 -62 -25l-143 -143q-26 -26 -26 -62v-51q0 -15 -10 -26l-15 -15v0l-271 271l15 15q10 11 25 11h51
q37 0 62 25l143 143q26 26 26 62v51q0 15 10 26l15 15l271 -271z" />
    <glyph glyph-name="uniE676" unicode="&#xe676;" 
d="M896 710h-461q-32 0 -54.5 -22.5t-22.5 -54.5v-154q0 -10 7.5 -17.5t18.5 -7.5t18.5 7.5t7.5 17.5v154q0 10 7.5 17.5t17.5 7.5h387l-196 -84q-27 -11 -45 -38.5t-18 -56.5v-486h-128q-10 0 -17.5 7.5t-7.5 17.5v154q0 11 -7.5 18.5t-18.5 7.5t-18.5 -7.5t-7.5 -18.5
v-154q0 -31 22.5 -53.5t54.5 -22.5h128v-77q0 -35 26 -52q13 -9 30 -9q13 0 27 6l264 113q27 12 45 39.5t18 55.5v615q0 32 -22.5 54.5t-54.5 22.5zM922 18q0 -13 -10 -27.5t-22 -19.5l-264 -114q-7 -3 -9.5 -1.5t-2.5 9.5v614q0 14 10 28.5t22 19.5l273 117q3 -5 3 -11
v-615zM428 344l-154 153q-7 8 -18 8t-18.5 -7.5t-7.5 -18t8 -18.5l110 -110h-322q-11 0 -18.5 -7.5t-7.5 -18t7.5 -18t18.5 -7.5h322l-110 -110q-8 -7 -8 -18t7.5 -18t18.5 -7t18 7l154 154q7 7 7 17.5t-7 18.5z" />
    <glyph glyph-name="uniE677" unicode="&#xe677;" 
d="M900 -212h-53v1024h53q22 0 37.5 -15.5t15.5 -37.5v-918q0 -22 -15.5 -37.5t-37.5 -15.5zM177 -159v53h88q44 0 75 31t31 75t-31 75t-75 31h-88v88h88q44 0 75 31t31 75t-31 75t-75 31h-88v88h88q44 0 75 31t31 75t-31 75t-75 31h-88v53q0 22 15.5 37.5t37.5 15.5h564
v-1024h-564q-22 0 -37.5 15.5t-15.5 37.5zM318 600q0 -22 -15.5 -37.5t-37.5 -15.5h-141q-22 0 -37.5 15.5t-15.5 37.5t15.5 37.5t37.5 15.5h141q22 0 37.5 -15.5t15.5 -37.5zM124 353h141q22 0 37.5 -15.5t15.5 -37.5t-15.5 -37.5t-37.5 -15.5h-141q-22 0 -37.5 15.5
t-15.5 37.5t15.5 37.5t37.5 15.5zM124 53h141q22 0 37.5 -15.5t15.5 -37.5t-15.5 -37.5t-37.5 -15.5h-141q-22 0 -37.5 15.5t-15.5 37.5t15.5 37.5t37.5 15.5z" />
    <glyph glyph-name="uniE678" unicode="&#xe678;" 
d="M960 428v320h-320l126 -126l-137 -137q-94 71 -213 71q-146 0 -249 -103t-103 -249t103 -249t249 -103t249 103t103 249q0 119 -71 213l137 137zM597 23q-75 -75 -181 -75t-181 75t-75 181t75 181t181 75t181 -75t75 -181t-75 -181z" />
    <glyph glyph-name="uniE679" unicode="&#xe679;" 
d="M960 620h-28q-27 0 -45 -18l-87 -86v40q0 40 -28 68t-68 28h-608q-40 0 -68 -28t-28 -68v-512q0 -40 28 -68t68 -28h608q40 0 68 28t28 68v39l87 -85q18 -19 45 -19h28q27 0 45.5 19t18.5 45v513q0 27 -18.5 45.5t-45.5 18.5zM96 12q-13 0 -22.5 9.5t-9.5 22.5v512
q0 13 9.5 22.5t22.5 9.5h608q13 0 22.5 -9.5t9.5 -22.5v-512q0 -13 -9.5 -22.5t-22.5 -9.5h-608zM960 43h-32l-128 128v1l-32 32v192l160 160h32v-513z" />
    <glyph glyph-name="uniE67A" unicode="&#xe67a;" 
d="M795 530q-10 14 -27 14h-32q-13 0 -22.5 -9.5t-9.5 -22.5v-192q0 -13 9.5 -22.5t22.5 -9.5h128q13 0 22.5 9.5t9.5 22.5v48q0 10 -5 18zM864 320h-128v192h32l96 -144v-48zM1008 405l-128 192q-29 43 -80 43h-128v64q0 40 -28 68t-68 28h-480q-40 0 -68 -28t-28 -68v-352
q0 -40 28 -68t68 -28v-96q0 -40 28 -68t68 -28h37q10 -42 44.5 -69t78.5 -27t78.5 27t44.5 69h169q11 -42 45.5 -69t78.5 -27t78.5 27t44.5 69h37q40 0 68 28t28 68v192q0 29 -16 53zM96 320q-13 0 -22.5 9.5t-9.5 22.5v352q0 13 9.5 22.5t22.5 9.5h480q13 0 22.5 -9.5
t9.5 -22.5v-64v-64v-224q0 -13 -9.5 -22.5t-22.5 -9.5h-480zM352.5 32q-26.5 0 -45.5 18.5t-19 45.5t19 45.5t45.5 18.5t45 -19t18.5 -45t-18.5 -45t-45 -19zM768 32q-27 0 -45.5 18.5t-18.5 45.5t18.5 45.5t45.5 18.5q26 0 45 -19t19 -45t-19 -45t-45 -19zM960 160
q0 -13 -9.5 -22.5t-22.5 -9.5h-37q-10 42 -44.5 69t-78.5 27t-78.5 -27t-44.5 -69h-170q-10 42 -44.5 69t-78.5 27t-78.5 -27t-44.5 -69h-37q-13 0 -22.5 9.5t-9.5 22.5v96h416q40 0 68 28t28 68v224h128q17 0 27 -14l128 -192q5 -8 5 -18v-192z" />
    <glyph glyph-name="uniE67B" unicode="&#xe67b;" 
d="M896 -84h-767q-26 0 -45 19t-19 45v640q0 26 19 45t45 19h290q24 0 44.5 -16t26.5 -40l16 -65q0 -2 3 -4.5t5 -2.5h382q27 0 45.5 -19t18.5 -45v-512q0 -26 -18.5 -45t-45.5 -19zM162 -20h702q14 0 23 9.5t9 22.5v448q0 13 -9 22.5t-23 9.5h-350q-24 0 -44.5 16t-25.5 40
l-16 65q-1 2 -4 4.5t-5 2.5h-257q-14 0 -23 -9.5t-9 -22.5v-576q0 -13 9 -22.5t23 -9.5z" />
    <glyph glyph-name="uniE67C" unicode="&#xe67c;" 
d="M160 -148v768l133 128h406l133 -128v-768h-672zM800 108v480h-608v-704h608v224zM768 364h-544v192h544v-192zM576 492h-160v-32h160v32zM768 140h-544v192h544v-192zM576 268h-160v-32h160v32zM768 -84h-544v192h544v-192zM576 44h-160v-32h160v32z" />
    <glyph glyph-name="uniE67D" unicode="&#xe67d;" 
d="M745 277q-28 0 -73 -24t-67 -24t-85 54.5t-117 119t-54 88.5q0 26 23.5 65t23.5 66q0 20 -37 86.5t-85.5 127t-75.5 60.5q-30 0 -76.5 -29.5t-84 -78.5t-37.5 -94q0 -69 39.5 -159t104 -180t151 -178t176.5 -155t184 -108.5t171 -41.5q44 0 89.5 27.5t77 75t31.5 99.5
q0 18 -58.5 68t-127 92.5t-93.5 42.5zM926 -34q-50 -47 -100 -47q-98 0 -232.5 78t-266.5 212q-125 128 -202 260q-78 134 -78 225q0 21 16.5 48.5t44.5 54.5q25 22 49 36t37 16q31 -18 89 -105q56 -87 66 -124q-1 -14 -17 -41q-29 -49 -29 -88q0 -34 42 -91q33 -43 82 -92
q48 -49 90 -82q55 -43 88 -43q34 0 87 28q36 19 52 19q12 -2 46.5 -21.5t79.5 -51.5q82 -58 107 -91q-4 -55 -51 -100z" />
    <glyph glyph-name="uniE67E" unicode="&#xe67e;" 
d="M928 768h-832q-40 0 -68 -28t-28 -68v-576q0 -40 28 -68t68 -28h832q40 0 68 28t28 68v576q0 40 -28 68t-68 28zM96 704h832q13 0 22.5 -9.5t9.5 -22.5v-96h-896v96q0 13 9.5 22.5t22.5 9.5zM928 64h-832q-13 0 -22.5 9.5t-9.5 22.5v288h896v-288q0 -13 -9.5 -22.5
t-22.5 -9.5zM128 256h64v-128h-64v128zM256 256h64v-128h-64v128zM384 256h64v-128h-64v128z" />
    <glyph glyph-name="uniE67F" unicode="&#xe67f;" horiz-adv-x="1274" 
d="M640 320q78 0 148 -29.5t123 -83.5l-90 -90q-75 75 -181 75t-181 -75l-90 90q53 54 123 83.5t148 29.5zM187 389q91 90 208 138.5t245 48.5t245 -48.5t208 -138.5l-91 -91q-72 73 -165.5 111.5t-196.5 38.5t-196.5 -38.5t-165.5 -111.5zM989 762q161 -68 285 -192
l-91 -91q-109 109 -249 167t-294 58t-294 -58t-249 -167l-91 91q124 124 285 192q167 70 349 70t349 -70zM576 0q0 26 19 45t45 19t45 -19t19 -45t-19 -45t-45 -19t-45 19t-19 45z" />
    <glyph glyph-name="uniE680" unicode="&#xe680;" 
d="M750 462q16 -35 40.5 -53.5t46 -22.5t45 -23.5t36.5 -56.5q22 -63 -76.5 -164.5t-257.5 -160.5q-168 -60 -304.5 -46.5t-158.5 76.5q-21 56 12 114t19 114q-58 196 -48.5 306.5t115.5 196.5q27 23 30 52.5t30 40.5q24 8 46.5 -12.5t57.5 -18.5q135 2 202.5 -67.5
t164.5 -274.5zM559 48q90 33 163 87t102.5 93t25.5 52q-8 22 -50 33.5t-127 1t-192 -49.5q-104 -39 -177 -89t-96.5 -86t-16.5 -54q4 -12 51 -22.5t137 -4.5t180 39zM496 226q8 2 21.5 7.5t17.5 7.5l2 -2q14 -41 -18 -85t-91 -65q-98 -37 -156 14q80 70 224 123v0z" />
    <glyph glyph-name="uniE681" unicode="&#xe681;" horiz-adv-x="1271" 
d="M1080 323q-20 -20 -45 -44l-15 75q75 78 121 154t58.5 132.5t6.5 97.5t-28 63q-23 23 -65.5 29t-101.5 -8t-137.5 -64t-159.5 -131q-110 -110 -217.5 -265.5t-162.5 -279.5t-27 -152q29 -28 159 31.5t284 166.5l50 -40q-115 -82 -219.5 -136.5t-188.5 -73.5t-120 17
q-38 39 -13 137q-5 2 -8 5l-242 223q-9 8 -9 19.5t8 20.5l17 17q9 8 23.5 12.5t26.5 2.5l291 -48q2 0 6 -2q66 109 152.5 221t175.5 201q66 66 142 112t146.5 66t133.5 11.5t101 -47t45.5 -102t-13.5 -135t-66.5 -147.5t-108.5 -139zM66 286l-7 -6l215 -192l13 26
q22 53 54 112l4 9zM888 511l-59 -58l-58 58l58 58zM801 424l-59 -58l-58 58l58 58zM510 250l58 58l58 -58l-58 -58zM714 337l-59 -58l-58 58l58 58zM1033 743l58 -58l-58 -57l-59 57zM729 246l205 205q9 8 16.5 6t9.5 -14l38 -213q2 -12 -2.5 -26.5t-13.5 -23.5l-65 -65
q-8 -8 -21 -9t-23 5l-141 98q-9 6 -10 17t7 20zM888 163l64 60l-30 140l-132 -132z" />
    <glyph glyph-name="uniE682" unicode="&#xe682;" 
d="M874.5 746.5q-72.5 72.5 -166 111t-196.5 38.5t-196.5 -38.5t-166 -111t-111 -166t-38.5 -196.5t38.5 -196.5t111 -166t166 -111t196.5 -38.5t196.5 38.5t166 111t111 166t38.5 196.5t-38.5 196.5t-111 166zM896 384q0 -123 -71 -222l-535 535q99 71 222 71
q159 0 271.5 -112.5t112.5 -271.5zM128 384q0 123 71 222l535 -535q-99 -71 -222 -71q-104 0 -192.5 51.5t-140 140t-51.5 192.5z" />
    <glyph glyph-name="uniE683" unicode="&#xe683;" 
d="M704 -128h320l-256 1024h-192l32 -256h-192l32 256h-192l-256 -1024h320l32 256h320zM368 256l32 256h224l32 -256h-288z" />
    <glyph glyph-name="uniE684" unicode="&#xe684;" 
d="M602 844v42v10q177 0 294.5 -118.5t117.5 -297.5h-6h-14h-22h-194h-24h-24h-32h-48h-24h-17h-7v364zM491 -128q-98 0 -187 38.5t-153.5 103.5t-102.5 154.5t-38 188t38 188.5t102.5 155t153.5 103t187 38q17 0 47 -5v-420h432q3 -29 3 -59q0 -99 -38.5 -188.5
t-103 -154.5t-153.5 -103.5t-187 -38.5zM474 352v426q-113 0 -205.5 -56.5t-143.5 -153t-51 -211.5t55.5 -211.5t152 -153t209.5 -56.5q114 0 210 53t152 147.5t56 207.5v8h-435z" />
    <glyph glyph-name="uniE685" unicode="&#xe685;" horiz-adv-x="1025" 
d="M704 896q-87 0 -160.5 -43t-116.5 -116.5t-43 -160.5q0 -58 23 -116l-389 -389q-18 -18 -18 -39v-96q0 -26 19 -45t45 -19h96q21 0 39 18l46 46h75q27 0 45.5 19t18.5 45v64h64q27 0 45.5 19t18.5 45v75l76 76q58 -23 116 -23q87 0 160.5 43t116.5 116.5t43 160.5
t-43 160.5t-116.5 116.5t-160.5 43zM704 320q-68 0 -129 36l-11 -11l-97 -97q-19 -18 -19 -45v-75h-64q-26 0 -45 -18.5t-19 -45.5v-64h-75q-26 0 -45 -19l-45 -45h-91v91l373 373l47 47q-36 61 -36 129q0 106 75 181t181 75t181 -75t75 -181t-75 -181t-181 -75zM890 632
q-54 76 -130 130q-12 9 -28 4q-67 -23 -90 -90q-2 -5 -2 -11q0 -9 6 -18q54 -75 130 -129q13 -10 28 -4q67 23 90 90q2 5 2 10q0 10 -6 18zM794 544q-70 50 -122 121q18 52 70 71q71 -51 122 -122q-19 -52 -70 -70z" />
    <glyph glyph-name="uniE686" unicode="&#xe686;" horiz-adv-x="1025" 
d="M410 539v243q0 23 -21.5 32t-37.5 -8l-63 -63q-10 -10 -24.5 -10t-24.5 10l-135 135q-18 18 -43 18t-42 -18l-1 -1q-18 -17 -18 -42t18 -43l135 -135q10 -10 10 -24.5t-10 -24.5l-63 -63q-16 -16 -7.5 -37.5t31.5 -21.5h243q22 0 37.5 15.5t15.5 37.5zM667 486h243
q23 0 32 21.5t-8 37.5l-63 63q-10 10 -10 24.5t10 24.5l135 135q18 18 18 43t-18 42l-1 1q-17 18 -42 18t-43 -18l-135 -135q-10 -10 -24.5 -10t-24.5 10l-63 63q-16 16 -37.5 7.5t-21.5 -31.5v-243q0 -22 15.5 -37.5t37.5 -15.5zM614 229v-243q0 -23 21.5 -32t37.5 8l63 63
q10 10 24.5 10t24.5 -10l135 -135q18 -18 43 -18t42 18l1 1q18 17 18 42t-18 43l-135 135q-10 10 -10 24.5t10 24.5l63 63q16 16 7.5 37.5t-31.5 21.5h-243q-22 0 -37.5 -15.5t-15.5 -37.5zM357 282h-243q-23 0 -31.5 -21.5t7.5 -37.5l63 -63q10 -10 10 -24.5t-10 -24.5
l-135 -135q-18 -18 -18 -43t18 -42l1 -1q17 -18 42 -18t43 18l135 135q10 10 24.5 10t24.5 -10l63 -63q16 -16 37.5 -7.5t21.5 31.5v243q0 22 -15.5 37.5t-37.5 15.5z" />
    <glyph glyph-name="uniE687" unicode="&#xe687;" 
d="M591 312q102 32 163 123q49 74 48.5 164.5t-50.5 163.5q-44 65 -111.5 99.5t-137 34.5t-137 -34.5t-111.5 -99.5q-50 -73 -50.5 -163.5t48.5 -164.5q61 -91 163 -123q15 -4 24 -16.5t9 -27.5v-65q-1 -12 -9 -20t-20 -8h-106q-13 0 -22 -9t-9 -22v-49q0 -12 9 -21t22 -9
h106q12 0 20 -8.5t8 -20.5v-106q0 -13 9 -22t22 -9h49q12 0 21 9t9 22v106q0 12 8.5 20.5t20.5 8.5h106q13 0 22 9t9 21v49q0 13 -9 22t-22 9h-106q-12 0 -20.5 8t-8.5 20v65q0 15 9 27.5t24 16.5zM371 464q-55 55 -55 133t55 133t133 55t133 -55t55 -133t-55 -133t-133 -55
t-133 55z" />
    <glyph glyph-name="uniE688" unicode="&#xe688;" horiz-adv-x="1059" 
d="M34 -128v34h-34v68h34v205h-34v68h34v205h-34v69h34v204h-34v69h34v102h68v-922h922q14 0 24 -10t10 -24t-10 -24t-24 -10h-102v-34h-69v34h-204v-34h-69v34h-205v-34h-68v34h-205v-34h-68zM956 725q-43 0 -73 -30t-30 -72q0 -36 24 -65l-106 -176q-10 2 -20 2
q-41 0 -71 -29l-101 51q1 10 1 12q0 43 -30 73t-72.5 30t-72.5 -30t-30 -73q0 -31 18 -57l-90 -119q-16 5 -30 5q-42 0 -72 -30t-30 -72t30 -72t72 -30t72 30t30 72q0 31 -17 57l90 119q16 -5 30 -5q41 0 71 29l101 -51q-1 -9 -1 -12q0 -43 30 -73t72 -30t72 30t30 73
q0 36 -23 64l105 177q11 -2 21 -2q42 0 72 30t30 72t-30 72t-72 30z" />
    <glyph glyph-name="uniE689" unicode="&#xe689;" 
d="M1013.5 202.5q10.5 -10.5 10.5 -23.5v-206q0 -15 -10.5 -25t-24.5 -10h-206q-14 0 -24.5 10t-10.5 25v206q0 9 4.5 17t12.5 12.5t18 4.5h77v136q0 7 -3 12.5t-9 9t-13 3.5h-292v-161h78q14 0 24.5 -10.5t10.5 -23.5v-206q0 -9 -5 -17t-13 -13t-17 -5h-206q-9 0 -17 5
t-13 13t-5 17v206q0 13 10 23.5t25 10.5h77v161h-303q-12 0 -19.5 -7.5t-7.5 -17.5v-136h78q15 0 25 -10.5t10 -23.5v-206q0 -15 -10 -25t-25 -10h-206q-5 0 -10.5 2t-9.5 5t-7.5 7.5t-5 9.5t-1.5 11v206q0 4 1 8.5t3.5 8t6 7t7 6t8 3.5t8.5 1h78v188q0 10 7.5 17.5
t17.5 7.5h355v128h-77q-15 0 -25 10t-10 24v206q0 15 10 25.5t25 10.5h206q9 0 17 -5.5t13 -13.5t5 -17v-206q0 -14 -10.5 -24t-24.5 -10h-78v-128h343q11 0 18.5 -7.5t7.5 -17.5v-188h77q14 0 24.5 -10.5z" />
    <glyph glyph-name="uniE68A" unicode="&#xe68a;" 
d="M133 -18h-25l-1 25q0 62 9.5 98t25 52t45.5 31q22 10 41 24l31 -40q-23 -17 -49 -29q-20 -10 -28.5 -17.5t-15 -30t-7.5 -63.5q32 1 52 5t32 13.5t17 16.5t13 24q10 22 24 42l38 -34q-10 -17 -18 -34q-11 -23 -21 -36t-29.5 -25t-52 -17t-81.5 -5zM665 437
q-42 0 -72 29.5t-30 71.5t30 72t72 30t71.5 -30t29.5 -72t-29.5 -71.5t-71.5 -29.5zM665 589q-21 0 -36 -15t-15 -36t15 -35.5t35.5 -14.5t35.5 14.5t15 35.5t-14.5 36t-35.5 15zM444 -22q-4 0 -8 1q-13 5 -16 18l-31 131l-57 63q-45 50 -55 62l-151 35q-10 2 -16 11t-3 19
q1 6 6 11l92 101q8 8 19 8h141q9 15 30 58q2 5 11.5 24t13.5 26.5t12.5 24t13.5 25.5t12.5 21.5t14.5 22t14 16.5q52 64 128 93q135 47 278 40q10 0 16.5 -7t7.5 -16q-1 -13 1 -50t-6.5 -107.5t-27.5 -121.5q-25 -75 -86 -125q-16 -14 -45 -31t-74 -40.5t-60 -31.5
q-50 -28 -56 -32v-131q0 -11 -8 -19l-94 -93q-7 -6 -17 -6zM309 292q15 -18 122 -135q4 -5 6 -11l22 -97l54 59v132q0 12 9 20q35 24 73 43q14 8 56 29.5t70.5 38t42.5 29.5q52 42 72 105q34 90 31 235q-120 1 -234 -39q-65 -24 -108 -78q-6 -6 -12 -15t-13 -20.5t-12 -20.5
t-13 -24t-12 -23t-12 -24.5t-11 -22.5q-28 -55 -39 -73q-7 -12 -21 -12h-144l-57 -61l116 -26q8 -2 14 -9z" />
    <glyph glyph-name="uniE68B" unicode="&#xe68b;" 
d="M886 420h1q0 55 -18 103q-43 108 -141 175.5t-218 67.5t-217 -67.5t-141 -175.5q-19 -45 -19 -103h3q-33 -20 -52.5 -54t-19.5 -74q0 -54 33 -95.5t84 -53.5q50 -84 136 -114q2 -12 11.5 -19.5t21.5 -7.5q13 0 23 10t10 24t-10 23.5t-23 9.5q-15 0 -25 -10
q-68 26 -108 84v277q0 53 22 98q39 75 112 121.5t161 46.5t161 -46.5t112 -121.5q22 -45 22 -98v-283q63 0 108 45t45 108q0 40 -20 75t-54 55z" />
    <glyph glyph-name="uniE68C" unicode="&#xe68c;" 
d="M504 577q-81 0 -138.5 -57.5t-57.5 -138.5t57.5 -138t138.5 -57t138 57t57 138t-57 138.5t-138 57.5v0zM504 238q-59 0 -101.5 42t-42.5 101.5t42.5 101.5t101.5 42t101 -42t42 -101.5t-42 -101.5t-101 -42v0zM935 473q-22 2 -51 13.5t-39 32.5q-15 34 29 96l12 17
l-122 129l-18 -14q-20 -15 -51.5 -27.5t-51.5 -2.5q-30 14 -33 88l-1 26h-97h-97l-1 -26q-3 -74 -33 -88q-20 -10 -51.5 2.5t-51.5 27.5l-18 14l-122 -129l12 -17q44 -62 29 -96q-10 -21 -38.5 -32t-51.5 -14l-24 -2v-78v-96l24 -2q23 -3 51.5 -14t38.5 -32q15 -34 -29 -96
l-12 -17l122 -129l18 14q20 15 51.5 27.5t51.5 2.5q30 -14 33 -88l1 -26h97h97l1 26q3 74 33 88q20 10 51.5 -2.5t51.5 -27.5l18 -14l122 129l-12 17q-44 62 -29 96q10 21 39 32.5t51 13.5l24 2v95v79l-24 2v0zM907 393v-50q-84 -18 -109 -72.5t21 -129.5l-61 -65
q-81 49 -137 22q-52 -24 -61 -108h-48h-48q-9 84 -61 108q-56 27 -137 -22l-61 65q46 75 21 129.5t-109 72.5v49v33q84 18 109 72.5t-21 129.5l61 65q81 -49 137 -22q52 24 61 108h48h48q9 -84 61 -108q56 -27 137 22l61 -65q-46 -75 -21 -129.5t109 -72.5v-32v0v0zM907 393
z" />
    <glyph glyph-name="uniE68D" unicode="&#xe68d;" horiz-adv-x="1025" 
d="M950 366q0 18 -28 18h-580q-22 0 -46 -12q-29 -15 -38 -28l-158 -194q-8 -11 -8 -20q0 -20 28 -20h580q22 0 46 12q20 10 38 28l156 194q10 13 10 22zM342 452h408v86q0 22 -14 36t-36 14h-308q-20 0 -36 16q-14 14 -14 36v34q0 20 -16 36t-36 16h-170q-20 0 -36 -16
t-16 -36v-454l136 168q24 27 62 46q39 18 76 18zM1018 366q0 -34 -24 -64l-158 -194q-22 -28 -62 -46q-37 -20 -74 -20h-580q-51 0 -84 36q-36 36 -36 84v512q0 48 36 84q33 36 84 36h170q48 0 84 -36t36 -84v-16h290q48 0 84 -36t36 -84v-86h102q28 0 52 -12q25 -16 36 -38
q8 -16 8 -36z" />
    <glyph glyph-name="uniE68E" unicode="&#xe68e;" 
d="M511 -63q-106 0 -196 49.5t-142.5 135.5t-52.5 187q0 114 66 208t176 137q15 6 30 0t21 -20.5t-0.5 -28.5t-21.5 -20q-88 -35 -140.5 -110t-52.5 -166q0 -123 92 -210.5t221.5 -87.5t221.5 87.5t92 210.5q0 91 -53 166t-141 110q-15 6 -21 20t0 28.5t21 20.5t30 0
q110 -43 176 -137t66 -208q0 -101 -52.5 -187t-143 -135.5t-196.5 -49.5zM511.5 309q-16.5 0 -28 11t-11.5 27v447q0 16 11.5 26.5t28 10.5t27.5 -10.5t11 -26.5v-447q0 -16 -11 -27t-27.5 -11z" />
    <glyph glyph-name="uniE68F" unicode="&#xe68f;" 
d="M714 106q47 -26 47 -47v-70q0 -20 -14 -33.5t-33 -13.5h-597q-19 0 -33 13.5t-14 33.5v70q0 19 47 47l178 96q-49 39 -68 104t-19 103v116q0 30 18 58.5t47.5 52t67 38t75.5 14.5q39 0 76 -14.5t66 -38t47 -52.5t18 -58v-116q0 -43 -17 -106t-66 -102zM705 -2v49
q-2 2 -6 4q-4 3 -7 4l-2 1q-1 0 -3 1l-173 96q-12 7 -20 18.5t-9 25.5q-2 14 4 27t17 21q35 28 48 79.5t13 84.5v116q0 30 -45 69t-106 39q-59 0 -106 -39t-47 -69v-116q0 -33 15.5 -84.5t51.5 -79.5q10 -8 15.5 -21t4.5 -27t-9 -25.5t-20 -17.5l-179 -98h-1q-1 -1 -2 -1
q-3 -1 -7 -4q-1 0 -3.5 -2t-3.5 -2v-49h580zM907 243q47 -26 47 -47v-69q0 -20 -14 -33t-33 -13h-91q-5 18 -11 31.5t-18 23.5h112v49l-6 4q-4 2 -7 3q-1 1 -2.5 1.5t-2.5 0.5l-176 96q-13 7 -20.5 19t-8.5 25q-2 14 4 27t17 22q35 28 49.5 79.5t14.5 83.5v116
q0 32 -47 70.5t-107 38.5q-29 0 -56.5 -9.5t-48.5 -25.5q-17 5 -35 6q-16 1 -35 2q30 35 77.5 59t97.5 24q39 0 76.5 -15t67 -38t47.5 -52.5t18 -59.5v-116q0 -42 -18 -105t-67 -101z" />
  </font>
</defs>
</svg>
